<?xml version="1.0" encoding="UTF-8" standalone="no"?>
<svg
   id="svg8"
   width="75"
   height="380"
   viewBox="0 0 74.999998 380.00001"
   version="1.1"
   sodipodi:docname="module.svg"
   inkscape:version="1.4.3 (0d15f75042, 2025-12-25)"
   xmlns:inkscape="http://www.inkscape.org/namespaces/inkscape"
   xmlns:sodipodi="http://sodipodi.sourceforge.net/DTD/sodipodi-0.dtd"
   xmlns="http://www.w3.org/2000/svg"
   xmlns:svg="http://www.w3.org/2000/svg"
   xmlns:rdf="http://www.w3.org/1999/02/22-rdf-syntax-ns#"
   xmlns:cc="http://creativecommons.org/ns#"
   xmlns:dc="http://purl.org/dc/elements/1.1/">
  <metadata
     id="metadata29">
    <rdf:RDF>
      <cc:Work
         rdf:about="">
        <dc:format>image/svg+xml</dc:format>
        <dc:type
           rdf:resource="http://purl.org/dc/dcmitype/StillImage" />
        <dc:title>MyModule</dc:title>
      </cc:Work>
    </rdf:RDF>
  </metadata>
  <defs
     id="defs27">
    <rect
       x="18.494113"
       y="29.667639"
       width="29.282344"
       height="15.797055"
       id="rect4" />
  </defs>
  <sodipodi:namedview
     pagecolor="#ffffff"
     bordercolor="#666666"
     borderopacity="1"
     objecttolerance="10"
     gridtolerance="10"
     guidetolerance="10"
     inkscape:pageopacity="0"
     inkscape:pageshadow="2"
     inkscape:window-width="1366"
     inkscape:window-height="708"
     id="namedview25"
     showgrid="false"
     inkscape:zoom="4.1200231"
     inkscape:cx="2.0630952"
     inkscape:cy="20.630952"
     inkscape:window-x="0"
     inkscape:window-y="0"
     inkscape:window-maximized="1"
     inkscape:current-layer="layer2"
     showguides="true"
     inkscape:guide-bbox="true"
     inkscape:lockguides="false"
     inkscape:showpageshadow="2"
     inkscape:pagecheckerboard="0"
     inkscape:deskcolor="#d1d1d1">
    <sodipodi:guide
       position="130.58595,330.25297"
       orientation="0,1"
       id="guide1043"
       inkscape:locked="false" />
    <sodipodi:guide
       position="0,389.94941"
       orientation="1,0"
       id="guide1"
       inkscape:locked="false" />
    <sodipodi:guide
       position="74.948465,291.63345"
       orientation="1,0"
       id="guide2"
       inkscape:locked="false" />
    <sodipodi:guide
       position="32.030968,342.50033"
       orientation="1,0"
       id="guide3"
       inkscape:locked="false" />
    <sodipodi:guide
       position="43.163683,345.42999"
       orientation="1,0"
       id="guide4"
       inkscape:locked="false" />
  </sodipodi:namedview>
  <title
     id="title2">MyModule</title>
  <g
     inkscape:groupmode="layer"
     id="layer2"
     inkscape:label="background"
     transform="translate(0,-3.0517578e-5)">
    <g
       transform="matrix(0.84260192,0,0,1,-190.45349,3.0517578e-5)"
       id="g1786"
       style="fill:#44423e;fill-opacity:1">
      <path
         id="path1784"
         transform="matrix(0.98900004,0,0,1,122.09056,0)"
         d="M 105.0957,0 V 47.439453 51.25 54.185547 55.410156 321.10938 322.33984 380 h 90 V 322.33984 321.15039 54.185547 51.25 47.400391 0 Z"
         style="fill:#44423e;fill-opacity:1;stroke-width:1.00554574"
         inkscape:connector-curvature="0" />
    </g>
    <rect
       style="opacity:1;vector-effect:none;fill:#3c3835;fill-opacity:1;stroke:none;stroke-width:0.88884872;stroke-linecap:butt;stroke-linejoin:miter;stroke-miterlimit:4;stroke-dasharray:none;stroke-dashoffset:0;stroke-opacity:1"
       id="rect2016"
       width="75"
       height="20"
       x="9.9999997e-06"
       y="360.00003" />
    <rect
       y="4.0517578e-05"
       x="9.9999997e-06"
       height="20"
       width="75"
       id="rect2018"
       style="opacity:1;vector-effect:none;fill:#3c3835;fill-opacity:1;stroke:none;stroke-width:0.88884872;stroke-linecap:butt;stroke-linejoin:miter;stroke-miterlimit:4;stroke-dasharray:none;stroke-dashoffset:0;stroke-opacity:1" />
    <text
       xml:space="preserve"
       transform="matrix(1.2230331,0,0,1.1830664,-0.22034838,-10.002333)"
       id="text4"
       style="font-style:normal;font-variant:normal;font-weight:normal;font-stretch:normal;font-size:13.3333px;font-family:'DejaVu Sans Mono';-inkscape-font-specification:'DejaVu Sans Mono, Normal';font-variant-ligatures:normal;font-variant-caps:normal;font-variant-numeric:normal;font-variant-east-asian:normal;writing-mode:lr-tb;direction:ltr;white-space:pre;shape-inside:url(#rect4);fill:#f9f2d0;fill-opacity:1"
       inkscape:label="text4"><tspan
         x="18.494141"
         y="41.464814"
         id="tspan1">AND</tspan></text>
  </g>
  <g
     inkscape:groupmode="layer"
     id="layer1"
     inkscape:label="graphics"
     transform="translate(0,-3.0517578e-5)" />
  <g
     id="g911"
     transform="translate(7.8009486)">
    <rect
       ry="5.2628322"
       y="2.80317"
       x="5.3014131"
       height="9.4488192"
       width="18.897638"
       id="rect861"
       style="opacity:1;vector-effect:none;fill:#251e1e;fill-opacity:1;stroke:none;stroke-width:0.57401633;stroke-linecap:butt;stroke-linejoin:miter;stroke-miterlimit:4;stroke-dasharray:none;stroke-dashoffset:0;stroke-opacity:1" />
    <rect
       style="opacity:1;vector-effect:none;fill:#251e1e;fill-opacity:1;stroke:none;stroke-width:0.57401633;stroke-linecap:butt;stroke-linejoin:miter;stroke-miterlimit:4;stroke-dasharray:none;stroke-dashoffset:0;stroke-opacity:1"
       id="rect863"
       width="18.897638"
       height="9.4488192"
       x="5.3014131"
       y="368.28354"
       ry="5.2628322" />
  </g>
  <g
     id="g915"
     transform="translate(-7.8009491)">
    <rect
       style="opacity:1;vector-effect:none;fill:#251e1e;fill-opacity:1;stroke:none;stroke-width:0.57401633;stroke-linecap:butt;stroke-linejoin:miter;stroke-miterlimit:4;stroke-dasharray:none;stroke-dashoffset:0;stroke-opacity:1"
       id="rect1497"
       width="18.897638"
       height="9.4488192"
       x="50.800949"
       y="2.80317"
       ry="5.2628322" />
    <rect
       ry="5.2628322"
       y="368.28354"
       x="50.800949"
       height="9.4488192"
       width="18.897638"
       id="rect1499"
       style="opacity:1;vector-effect:none;fill:#251e1e;fill-opacity:1;stroke:none;stroke-width:0.57401633;stroke-linecap:butt;stroke-linejoin:miter;stroke-miterlimit:4;stroke-dasharray:none;stroke-dashoffset:0;stroke-opacity:1" />
  </g>
  <g
     id="g4"
     transform="translate(0.78124324,-1.1718647)">
    <g
       id="g906"
       transform="rotate(180,29.394811,195.07455)">
      <rect
         ry="2.9625001"
         y="102.36627"
         x="10"
         height="237"
         width="24"
         id="rect1741"
         style="opacity:1;vector-effect:none;fill:#202020;fill-opacity:1;stroke:none;stroke-width:2.48194;stroke-linecap:round;stroke-linejoin:miter;stroke-miterlimit:4;stroke-dasharray:none;stroke-dashoffset:0;stroke-opacity:1;paint-order:stroke fill markers" />
      <rect
         style="display:inline;opacity:1;vector-effect:none;fill:#202020;fill-opacity:1;stroke:none;stroke-width:2.48194;stroke-linecap:round;stroke-linejoin:miter;stroke-miterlimit:4;stroke-dasharray:none;stroke-dashoffset:0;stroke-opacity:1;paint-order:stroke fill markers"
         id="rect882"
         width="24"
         height="41.912998"
         x="10"
         y="50.160988"
         ry="2.9625001" />
    </g>
    <g
       transform="translate(15.349617,-53.378164)"
       id="g2424">
      <path
         id="path2414"
         style="fill:#fff8d5"
         d="m 23.88,125.20991 a 0.41,0.41 0 0 1 -0.15,0.32 0.52,0.52 0 0 1 -0.35,0.13 0.46,0.46 0 0 1 -0.24,-0.07 0.45,0.45 0 0 1 -0.18,-0.21 l -0.36,-0.8 h -2.31 l -0.36,0.8 a 0.46,0.46 0 0 1 -0.17,0.21 0.45,0.45 0 0 1 -0.25,0.07 0.53,0.53 0 0 1 -0.35,-0.13 0.41,0.41 0 0 1 -0.16,-0.32 0.55,0.55 0 0 1 0.05,-0.22 l 1.84,-3.86 a 0.54,0.54 0 0 1 0.22,-0.25 0.64,0.64 0 0 1 0.32,-0.08 0.63,0.63 0 0 1 0.33,0.09 0.6,0.6 0 0 1 0.23,0.25 l 1.84,3.86 a 0.54,0.54 0 0 1 0.05,0.21 z m -3.23,-1.44 h 1.58 l -0.79,-1.77 z"
         inkscape:connector-curvature="0" />
      <path
         id="path2416"
         style="fill:#fff8d5"
         d="m 23.189136,165.91622 a 1.2,1.2 0 0 1 0.23,0.74 1.16,1.16 0 0 1 -0.45,1 1.92,1.92 0 0 1 -1.23,0.35 h -1.78 a 0.5,0.5 0 0 1 -0.37,-0.13 0.5,0.5 0 0 1 -0.13,-0.37 v -3.8 a 0.5,0.5 0 0 1 0.13,-0.37 0.5,0.5 0 0 1 0.37,-0.13 h 1.71 a 1.92,1.92 0 0 1 1.19,0.33 1.08,1.08 0 0 1 0.44,0.91 1.11,1.11 0 0 1 -0.2,0.66 1.14,1.14 0 0 1 -0.55,0.41 1.2,1.2 0 0 1 0.64,0.4 z m -2.69,-0.79 h 1 a 1,1 0 0 0 0.6,-0.14 0.49,0.49 0 0 0 0.19,-0.42 0.5,0.5 0 0 0 -0.19,-0.44 1,1 0 0 0 -0.6,-0.14 h -1 z m 1.73,1.89 a 0.54,0.54 0 0 0 0.19,-0.46 0.56,0.56 0 0 0 -0.19,-0.47 1,1 0 0 0 -0.61,-0.15 h -1.12 v 1.22 h 1.12 a 1,1 0 0 0 0.62,-0.14 z"
         inkscape:connector-curvature="0" />
      <path
         id="path2418"
         style="fill:#fff8d5"
         d="m 20.529706,215.00026 a 2,2 0 0 1 -0.82,-0.86 2.83,2.83 0 0 1 -0.29,-1.31 2.81,2.81 0 0 1 0.29,-1.3 2,2 0 0 1 0.82,-0.85 2.48,2.48 0 0 1 1.24,-0.3 2.47,2.47 0 0 1 1.54,0.49 0.52,0.52 0 0 1 0.14,0.16 0.45,0.45 0 0 1 0,0.2 0.47,0.47 0 0 1 -0.1,0.3 0.3,0.3 0 0 1 -0.24,0.13 h -0.17 l -0.16,-0.08 a 2.26,2.26 0 0 0 -0.5,-0.25 1.54,1.54 0 0 0 -0.5,-0.08 1.19,1.19 0 0 0 -1,0.4 1.88,1.88 0 0 0 -0.33,1.21 q 0,1.62 1.31,1.62 a 1.43,1.43 0 0 0 0.48,-0.08 3,3 0 0 0 0.52,-0.25 l 0.17,-0.08 h 0.16 a 0.3,0.3 0 0 1 0.24,0.13 0.47,0.47 0 0 1 0.1,0.3 0.45,0.45 0 0 1 0,0.21 0.5,0.5 0 0 1 -0.14,0.16 2.47,2.47 0 0 1 -1.54,0.49 2.48,2.48 0 0 1 -1.22,-0.36 z"
         inkscape:connector-curvature="0" />
      <path
         id="path2420"
         style="fill:#fff8d5"
         d="m 19.379987,257.9504 a 0.5,0.5 0 0 1 -0.13,-0.37 v -3.8 a 0.5,0.5 0 0 1 0.13,-0.37 0.5,0.5 0 0 1 0.37,-0.13 h 1.37 a 3,3 0 0 1 1.35,0.29 2,2 0 0 1 0.86,0.82 2.6,2.6 0 0 1 0.3,1.29 2.65,2.65 0 0 1 -0.3,1.29 2,2 0 0 1 -0.86,0.83 3,3 0 0 1 -1.35,0.29 h -1.37 a 0.5,0.5 0 0 1 -0.37,-0.14 z m 1.66,-0.73 a 1.36,1.36 0 0 0 1.53,-1.54 1.36,1.36 0 0 0 -1.53,-1.54 h -0.73 v 3.08 z"
         inkscape:connector-curvature="0" />
      <path
         id="path2422"
         style="fill:#fff8d5"
         d="m 19.865535,305.3204 a 0.5,0.5 0 0 1 -0.13,-0.37 v -3.8 a 0.5,0.5 0 0 1 0.13,-0.37 0.5,0.5 0 0 1 0.37,-0.13 h 2.41 q 0.5,0 0.5,0.41 0,0.41 -0.5,0.42 h -1.87 v 1.12 h 1.73 q 0.5,0 0.5,0.41 0,0.41 -0.5,0.41 h -1.73 v 1.2 h 1.87 q 0.5,0 0.5,0.41 0,0.41 -0.5,0.41 h -2.41 a 0.5,0.5 0 0 1 -0.37,-0.12 z"
         inkscape:connector-curvature="0" />
    </g>
    <g
       transform="translate(22.254887,-99.596332)"
       id="g209">
      <path
         inkscape:connector-curvature="0"
         d="m -118.57,159.45 a 0.52,0.52 0 0 1 -0.14,-0.39 v -3.81 a 0.51,0.51 0 0 1 0.14,-0.38 0.52,0.52 0 0 1 0.39,-0.14 0.52,0.52 0 0 1 0.39,0.14 0.51,0.51 0 0 1 0.14,0.38 v 3.81 a 0.52,0.52 0 0 1 -0.14,0.39 0.52,0.52 0 0 1 -0.39,0.14 0.52,0.52 0 0 1 -0.39,-0.14 z"
         transform="translate(129.82)"
         style="fill:#fff8d5"
         id="path203" />
      <path
         inkscape:connector-curvature="0"
         d="m -112,154.87 a 0.52,0.52 0 0 1 0.14,0.38 v 3.81 a 0.53,0.53 0 0 1 -0.14,0.38 0.48,0.48 0 0 1 -0.36,0.15 0.49,0.49 0 0 1 -0.39,-0.18 L -115,156.5 v 2.56 a 0.55,0.55 0 0 1 -0.13,0.38 0.46,0.46 0 0 1 -0.36,0.15 0.47,0.47 0 0 1 -0.36,-0.15 0.54,0.54 0 0 1 -0.14,-0.38 v -3.81 a 0.52,0.52 0 0 1 0.14,-0.38 0.48,0.48 0 0 1 0.36,-0.15 0.46,0.46 0 0 1 0.39,0.18 l 2.28,2.9 v -2.55 a 0.53,0.53 0 0 1 0.14,-0.38 0.46,0.46 0 0 1 0.35,-0.15 0.48,0.48 0 0 1 0.33,0.15 z"
         transform="translate(129.82)"
         style="fill:#fff8d5"
         id="path205" />
    </g>
    <g
       id="g960"
       transform="translate(22.054898,136.44868)">
      <path
         id="path954"
         style="fill:#fff8d5"
         transform="translate(129.82)"
         d="m -121.83,169.31 a 2,2 0 0 1 -0.81,-0.86 2.81,2.81 0 0 1 -0.29,-1.3 2.81,2.81 0 0 1 0.29,-1.3 2,2 0 0 1 0.81,-0.85 2.48,2.48 0 0 1 1.24,-0.3 2.48,2.48 0 0 1 1.24,0.3 2,2 0 0 1 0.81,0.85 2.81,2.81 0 0 1 0.29,1.3 2.81,2.81 0 0 1 -0.29,1.3 2,2 0 0 1 -0.81,0.86 2.45,2.45 0 0 1 -1.24,0.3 2.45,2.45 0 0 1 -1.24,-0.3 z m 2.18,-0.94 a 1.89,1.89 0 0 0 0.34,-1.22 1.89,1.89 0 0 0 -0.34,-1.21 1.15,1.15 0 0 0 -0.95,-0.42 1.14,1.14 0 0 0 -0.94,0.42 1.9,1.9 0 0 0 -0.34,1.21 1.9,1.9 0 0 0 0.34,1.22 1.14,1.14 0 0 0 0.94,0.42 1.15,1.15 0 0 0 0.95,-0.42 z"
         inkscape:connector-curvature="0" />
      <path
         id="path956"
         style="fill:#fff8d5"
         transform="translate(129.82)"
         d="m -116.26,169.09 a 2,2 0 0 1 -0.53,-1.52 v -2.33 a 0.51,0.51 0 0 1 0.14,-0.38 0.51,0.51 0 0 1 0.38,-0.14 0.5,0.5 0 0 1 0.38,0.14 0.52,0.52 0 0 1 0.14,0.38 v 2.37 a 1.28,1.28 0 0 0 0.26,0.87 1,1 0 0 0 0.76,0.3 1,1 0 0 0 0.76,-0.3 1.28,1.28 0 0 0 0.27,-0.87 v -2.37 a 0.52,0.52 0 0 1 0.14,-0.38 0.5,0.5 0 0 1 0.38,-0.14 0.51,0.51 0 0 1 0.38,0.14 0.51,0.51 0 0 1 0.14,0.38 v 2.33 a 2,2 0 0 1 -0.53,1.52 2.1,2.1 0 0 1 -1.54,0.52 2.1,2.1 0 0 1 -1.53,-0.52 z"
         inkscape:connector-curvature="0" />
      <path
         id="path958"
         style="fill:#fff8d5"
         transform="translate(129.82)"
         d="m -109.8,169.44 a 0.51,0.51 0 0 1 -0.15,-0.38 v -3.44 H -111 q -0.5,0 -0.5,-0.44 0,-0.44 0.5,-0.43 h 3.26 q 0.5,0 0.5,0.43 0,0.43 -0.5,0.44 h -1.1 v 3.44 a 0.51,0.51 0 0 1 -0.14,0.38 0.52,0.52 0 0 1 -0.39,0.14 0.53,0.53 0 0 1 -0.43,-0.14 z"
         inkscape:connector-curvature="0" />
    </g>
  </g>
</svg>
