<?xml version="1.0" encoding="UTF-8" standalone="no"?>
<svg
   id="svg8"
   width="75"
   height="380"
   viewBox="0 0 74.999998 380.00001"
   version="1.1"
   sodipodi:docname="AndGate.svg"
   inkscape:version="1.4.3 (0d15f75042, 2025-12-25)"
   xmlns:inkscape="http://www.inkscape.org/namespaces/inkscape"
   xmlns:sodipodi="http://sodipodi.sourceforge.net/DTD/sodipodi-0.dtd"
   xmlns="http://www.w3.org/2000/svg"
   xmlns:svg="http://www.w3.org/2000/svg"
   xmlns:rdf="http://www.w3.org/1999/02/22-rdf-syntax-ns#"
   xmlns:cc="http://creativecommons.org/ns#"
   xmlns:dc="http://purl.org/dc/elements/1.1/">
  <metadata
     id="metadata29">
    <rdf:RDF>
      <cc:Work
         rdf:about="">
        <dc:format>image/svg+xml</dc:format>
        <dc:type
           rdf:resource="http://purl.org/dc/dcmitype/StillImage" />
        <dc:title>MyModule</dc:title>
      </cc:Work>
    </rdf:RDF>
  </metadata>
  <defs
     id="defs27">
    <rect
       x="15.8125"
       y="62.1875"
       width="6.6875"
       height="9.125"
       id="rect8" />
    <rect
       x="26.8125"
       y="57.375"
       width="15.25"
       height="10.8125"
       id="rect7" />
    <rect
       x="32.4375"
       y="52.5"
       width="10.75"
       height="8.25"
       id="rect6" />
    <rect
       x="25.744035"
       y="297.60104"
       width="23.684512"
       height="13.386898"
       id="rect2" />
    <rect
       x="5.8353145"
       y="287.30343"
       width="64.874967"
       height="9.2678524"
       id="rect1" />
    <rect
       x="18.494113"
       y="29.667639"
       width="43.648603"
       height="11.522486"
       id="rect4" />
    <rect
       x="15.8125"
       y="62.1875"
       width="6.6875"
       height="9.125"
       id="rect9" />
    <rect
       x="15.8125"
       y="62.1875"
       width="6.6875"
       height="9.125"
       id="rect10" />
    <rect
       x="15.8125"
       y="62.1875"
       width="6.6875"
       height="9.125"
       id="rect11" />
    <rect
       x="15.8125"
       y="62.1875"
       width="6.6875"
       height="9.125"
       id="rect12" />
  </defs>
  <sodipodi:namedview
     pagecolor="#ffffff"
     bordercolor="#666666"
     borderopacity="1"
     objecttolerance="10"
     gridtolerance="10"
     guidetolerance="10"
     inkscape:pageopacity="0"
     inkscape:pageshadow="2"
     inkscape:window-width="1071"
     inkscape:window-height="1027"
     id="namedview25"
     showgrid="false"
     inkscape:zoom="2.8284271"
     inkscape:cx="27.223611"
     inkscape:cy="128.33988"
     inkscape:window-x="26"
     inkscape:window-y="23"
     inkscape:window-maximized="0"
     inkscape:current-layer="layer2"
     showguides="true"
     inkscape:guide-bbox="true"
     inkscape:lockguides="false"
     inkscape:showpageshadow="2"
     inkscape:pagecheckerboard="0"
     inkscape:deskcolor="#d1d1d1">
    <sodipodi:guide
       position="-0.14453125,360"
       orientation="0,1"
       id="guide1043"
       inkscape:locked="false" />
    <sodipodi:guide
       position="0,389.94941"
       orientation="1,0"
       id="guide1"
       inkscape:locked="false" />
    <sodipodi:guide
       position="74.948465,291.63345"
       orientation="1,0"
       id="guide2"
       inkscape:locked="false" />
    <sodipodi:guide
       position="31,342.50033"
       orientation="-1,0"
       id="guide3"
       inkscape:locked="false"
       inkscape:label=""
       inkscape:color="rgb(0,134,229)" />
    <sodipodi:guide
       position="44,345.42999"
       orientation="-1,0"
       id="guide4"
       inkscape:locked="false"
       inkscape:label=""
       inkscape:color="rgb(0,134,229)" />
    <sodipodi:guide
       position="-15.75,90"
       orientation="0,1"
       id="guide5"
       inkscape:locked="false"
       inkscape:label=""
       inkscape:color="rgb(0,134,229)" />
    <sodipodi:guide
       position="-35.355339,330"
       orientation="0,1"
       id="guide6"
       inkscape:locked="false"
       inkscape:label=""
       inkscape:color="rgb(0,134,229)" />
    <sodipodi:guide
       position="37.5,328.625"
       orientation="-1,0"
       id="guide7"
       inkscape:locked="false"
       inkscape:label=""
       inkscape:color="rgb(0,134,229)" />
  </sodipodi:namedview>
  <title
     id="title2">MyModule</title>
  <g
     inkscape:groupmode="layer"
     id="layer2"
     inkscape:label="background"
     transform="translate(0,-3.0517578e-5)">
    <g
       transform="matrix(0.84260192,0,0,1,-190.45349,3.0517578e-5)"
       id="g1786"
       style="display:inline;fill:#b3b3b3;fill-opacity:1"
       inkscape:label="Back">
      <path
         id="path1784"
         transform="matrix(0.98900004,0,0,1,122.09056,0)"
         d="M 105.0957,0 V 47.439453 51.25 54.185547 55.410156 321.10938 322.33984 380 h 90 V 322.33984 321.15039 54.185547 51.25 47.400391 0 Z"
         style="fill:#b3b3b3;fill-opacity:1;stroke-width:1.00555"
         inkscape:connector-curvature="0" />
    </g>
    <rect
       style="display:inline;opacity:1;vector-effect:none;fill:#666666;fill-opacity:1;stroke:none;stroke-width:0.888849;stroke-linecap:butt;stroke-linejoin:miter;stroke-miterlimit:4;stroke-dasharray:none;stroke-dashoffset:0;stroke-opacity:1"
       id="rect2016"
       width="75"
       height="20"
       x="9.9999997e-06"
       y="360.00003"
       inkscape:label="Foot" />
    <rect
       y="4.0517578e-05"
       x="9.9999997e-06"
       height="20"
       width="75"
       id="rect2018"
       style="display:inline;opacity:1;vector-effect:none;fill:#666666;fill-opacity:1;stroke:none;stroke-width:0.888849;stroke-linecap:butt;stroke-linejoin:miter;stroke-miterlimit:4;stroke-dasharray:none;stroke-dashoffset:0;stroke-opacity:1"
       inkscape:label="Head" />
    <path
       style="font-size:7.86109px;font-family:'Rock Salt';-inkscape-font-specification:'Rock Salt, @opsz=32';font-variation-settings:'opsz' 32;white-space:pre"
       d="m 24.766124,38.565606 q -0.02303,0.130507 -0.107476,0.184245 -0.07677,0.06141 -0.14586,0.16889 h -0.03071 q -0.07677,0 -0.153537,0.01535 -0.06909,0.01535 -0.14586,0.03838 -0.03838,-0.01535 -0.09212,-0.02303 -0.05374,-0.0077 -0.06909,-0.05374 -0.06142,0.03071 -0.168891,0.03071 -0.176567,0 -0.337781,-0.0998 -0.153537,-0.0998 -0.322428,-0.153537 -0.04606,-0.09212 -0.115152,-0.16889 -0.06142,-0.06909 -0.130507,-0.138184 -0.06142,-0.06909 -0.122829,-0.14586 -0.06142,-0.07677 -0.0998,-0.184244 -0.01535,-0.04606 -0.03839,-0.05374 -0.02303,-0.0077 -0.06909,0 0.0077,-0.08445 -0.02303,-0.14586 -0.02303,-0.06142 -0.115152,-0.07677 0,-0.0998 -0.03071,-0.16889 -0.03071,-0.06909 -0.07677,-0.12283 -0.03838,-0.04606 -0.09212,-0.0998 -0.04606,-0.05374 -0.07677,-0.130506 -0.06909,-0.01535 -0.138183,-0.02303 -0.06141,0 -0.138183,0 -0.368489,0 -0.713947,0.138184 -0.03838,0.01535 -0.08444,0.03838 -0.03838,0.02303 -0.07677,0.03838 -0.01535,0 -0.03071,0 -0.0077,0.0077 -0.02303,0.0077 -0.05374,0 -0.0998,-0.02303 -0.04606,-0.01535 -0.0998,-0.01535 -0.02303,0 -0.05374,0.0077 -0.02303,0.01535 -0.04606,0.02303 -0.115152,0.03838 -0.214951,0.04606 -0.314751,0.06142 -0.667886,0.09212 -0.345458,0.03071 -0.637178,0.161214 -0.06142,0.03071 -0.07677,0.09212 -0.01535,0.06909 -0.0077,0.130507 -0.08445,0.06141 -0.130507,0.161213 -0.03838,0.0998 -0.07677,0.207275 -0.03071,0.115153 -0.06909,0.222629 -0.03838,0.107476 -0.107476,0.184244 0.02303,0.04606 0.02303,0.0998 0,0.115153 -0.07677,0.230305 -0.07677,0.115153 -0.115152,0.222629 -0.03839,0.107476 -0.06142,0.207275 -0.02303,0.107476 -0.06909,0.191921 -0.04606,0.08444 -0.122829,0.138183 -0.08445,0.05374 -0.230306,0.05374 -0.138183,0 -0.237982,-0.05374 -0.0998,-0.05374 -0.161214,-0.138183 -0.06141,-0.08445 -0.0998,-0.199598 -0.03838,-0.115153 -0.06141,-0.230305 0.08444,-0.168891 0.161213,-0.291721 0.07677,-0.122829 0.115153,-0.31475 0.138183,-0.0998 0.207275,-0.245659 0.06142,-0.138184 0.06909,-0.307074 0.08444,-0.05374 0.122829,-0.14586 0.03071,-0.08445 0.03838,-0.184245 -0.184244,-0.01535 -0.383842,-0.03071 -0.207275,-0.01535 -0.383842,-0.07677 0,-0.01535 0.0077,-0.03071 0,-0.01535 0,-0.03071 0,-0.0998 -0.04606,-0.184244 -0.04606,-0.07677 -0.04606,-0.168891 v -0.06142 q 0.06142,-0.06141 0.115153,-0.130506 0.04606,-0.06142 0.0998,-0.115153 0.05374,-0.05374 0.12283,-0.09212 0.06909,-0.03071 0.176567,-0.03071 0.14586,0 0.284043,0.01535 0.138184,0.02303 0.284044,0.02303 0.0998,0 0.207275,-0.02303 0.16889,-0.345458 0.299397,-0.698593 0.130506,-0.360811 0.199598,-0.7293 0.05374,-0.07677 0.0998,-0.176568 0.04606,-0.107475 0.06909,-0.222628 0.03071,-0.115153 0.03838,-0.222629 0.01535,-0.115152 0.01535,-0.207274 0.08444,-0.0998 0.115153,-0.245659 0.03838,-0.145861 0.06142,-0.299397 0.02303,-0.161214 0.04606,-0.314751 0.03071,-0.153537 0.107475,-0.26869 v -0.06909 q 0.0077,-0.115153 -0.02303,-0.207275 0.03838,-0.01535 0.04606,-0.06909 0.0077,-0.05374 0.03071,-0.09212 0.0077,-0.353135 0.07677,-0.690916 0.06909,-0.345458 0.115152,-0.690916 v -0.02303 q 0,-0.03838 -0.03071,-0.03838 -0.02303,-0.0077 -0.02303,-0.04606 0,-0.06909 0.01535,-0.184244 0.02303,-0.115153 0.03071,-0.191922 0.04606,-0.414549 0.04606,-0.821422 0,-0.345458 -0.02303,-0.683239 -0.02303,-0.337782 -0.04606,-0.68324 l 0.06142,-0.09212 q 0.03071,-0.04606 0.05374,-0.09212 0.07677,-0.03071 0.122829,-0.06142 0.05374,-0.03838 0.138184,-0.03838 0.02303,0 0.03838,0.0077 0.01535,0 0.03071,0 0.04606,0.03071 0.06909,0.08444 0.03071,0.05374 0.05374,0.0998 0.03071,0.04606 0.07677,0.07677 0.04606,0.03071 0.130507,0.01535 0.03838,0.214952 0.214951,0.222629 0.03838,0.107476 0.09212,0.214952 0.06142,0.107475 0.161214,0.16889 -0.0077,0.03071 -0.0077,0.08445 0,0.107475 0.04606,0.207274 0.05374,0.0998 0.130507,0.184245 v 0.01535 q 0,0.08445 -0.06142,0.115153 0.06909,0.07677 0.0998,0.184244 0.03071,0.107476 0.05374,0.222629 0.02303,0.107476 0.05374,0.207275 0.03838,0.0998 0.122829,0.153537 v 0.02303 q 0,0.03838 -0.03071,0.04606 -0.02303,0.0077 -0.02303,0.04606 0.138184,0.253336 0.191922,0.552733 0.05374,0.299397 0.138183,0.575764 0.03071,0.03071 0.06909,0.03838 0.04606,0.0077 0.06909,0.03838 -0.04606,0.03071 -0.04606,0.107476 0,0.07677 -0.03838,0.115153 0.06142,0.05374 0.05374,0.161213 0,0.0998 0.06141,0.14586 v 0.03071 q 0,0.03071 -0.01535,0.05374 -0.01535,0.01535 -0.01535,0.04606 v 0.03071 q 0.06142,0.26869 0.09212,0.537379 0.03838,0.26869 0.07677,0.53738 0.03838,0.268689 0.08444,0.537379 0.04606,0.261013 0.130506,0.514349 0.0077,0.0077 0.0077,0.02303 0,0.03838 -0.03071,0.04606 -0.03071,0 -0.03071,0.03838 0,0.03838 0.02303,0.09212 0.03071,0.04606 0.06142,0.07677 -0.0077,0.03071 -0.0077,0.09212 0,0.115153 0.03838,0.222629 0.04606,0.107476 0.09212,0.214951 0.05374,0.0998 0.09212,0.214952 0.03838,0.115153 0.03071,0.245659 0.04606,0.06909 0.115152,0.115153 0.07677,0.04606 0.153537,0.08445 0.07677,0.03838 0.138184,0.09212 0.06909,0.05374 0.09212,0.14586 -0.06141,0.05374 -0.08445,0.130507 -0.02303,0.08444 -0.08444,0.14586 0.05374,0.130506 0.12283,0.237982 0.07677,0.115153 0.153537,0.222629 l 0.161213,0.214951 q 0.08445,0.107476 0.14586,0.230306 0.08445,0 0.12283,0.04606 0.03838,0.04606 0.12283,0.03838 0.03071,0.06141 0.02303,0.138183 0.153537,-0.05374 0.307074,-0.05374 0.08445,0 0.153537,0.0077 0.07677,0.0077 0.153537,0.0077 0.09212,0 0.161213,-0.02303 0.03071,0.04606 0.04606,0.0998 0.01535,0.06141 0.02303,0.12283 l 0.02303,0.122829 q 0.01535,0.06142 0.04606,0.107476 z M 21.871953,36.43912 q -0.107476,-0.529702 -0.222629,-1.051728 -0.107476,-0.529702 -0.191921,-1.067081 -0.04606,-0.284044 -0.06909,-0.568087 -0.02303,-0.284043 -0.06142,-0.56041 -0.03071,-0.284043 -0.09212,-0.56041 -0.05374,-0.276366 -0.161214,-0.545056 v -0.01535 q 0,-0.02303 0.01535,-0.03839 0.01535,-0.01535 0.01535,-0.05374 v -0.03071 q -0.0998,-0.06909 -0.138183,-0.191921 -0.03838,-0.130506 -0.06909,-0.26869 -0.02303,-0.14586 -0.06909,-0.276366 -0.03838,-0.138183 -0.138183,-0.230305 -0.03839,0.445257 -0.08445,0.890514 -0.03838,0.43758 -0.05374,0.882837 -0.07677,0.04606 -0.0998,0.153537 -0.02303,0.107476 -0.02303,0.191921 0,0.06142 0.0077,0.130506 0.0077,0.06141 0.03071,0.130507 -0.138183,0.345458 -0.199598,0.713946 -0.06142,0.360812 -0.138183,0.721624 -0.0077,0.02303 -0.03071,0.107476 -0.01535,0.07677 -0.03838,0.161214 -0.02303,0.08445 -0.03838,0.153536 -0.01535,0.06141 -0.01535,0.06909 -0.0077,0.05374 -0.0077,0.107476 0.0077,0.05374 0.0077,0.107476 l -0.115152,0.115152 q -0.03071,0.291721 -0.115153,0.568087 -0.07677,0.26869 -0.161214,0.552733 0.05374,0.0077 0.0998,0.0077 0.05374,0.0077 0.107476,0.0077 0.245659,0 0.491318,-0.03071 0.253336,-0.03838 0.498995,-0.06909 0.08444,-0.01535 0.176568,-0.02303 0.09212,-0.01535 0.176567,-0.01535 0.03838,-0.0077 0.09212,0 0.05374,0 0.09212,-0.0077 0.06142,-0.01535 0.07677,-0.04606 0.02303,-0.03839 0.08444,-0.04606 0.04606,0.02303 0.107476,0.02303 0.06909,0 0.130506,-0.03071 0.06142,-0.03071 0.12283,-0.06909 z m 6.824716,-4.744291 q -0.01535,0.09212 -0.04606,0.161214 -0.02303,0.06142 -0.0077,0.168891 -0.07677,0.0077 -0.12283,0.05374 -0.03838,0.03838 -0.06909,0.09212 -0.02303,0.05374 -0.05374,0.115152 -0.02303,0.05374 -0.06142,0.0998 0.06142,0.276367 0.06909,0.56041 0.0077,0.284043 0.03838,0.56041 0.03838,0.353135 0.115152,0.698593 0.08445,0.337781 0.08445,0.690916 0,0.107476 -0.0077,0.199598 0,0.09212 0,0.191921 0,0.06141 0,0.130506 0.0077,0.06142 0.0077,0.12283 0,0.222629 -0.06142,0.445257 -0.05374,0.222629 -0.08445,0.445257 -0.09212,0.08444 -0.161214,0.184244 -0.06142,0.0998 -0.130507,0.184245 -0.06909,0.08445 -0.161213,0.14586 -0.09212,0.06909 -0.230306,0.09212 -0.02303,0.07677 -0.09212,0.115153 -0.06142,0.03838 -0.107476,0.107475 h -0.01535 q -0.191921,0 -0.330105,-0.05374 -0.138183,-0.05374 -0.261012,-0.12283 -0.115153,-0.06909 -0.237983,-0.14586 -0.122829,-0.07677 -0.284043,-0.12283 -0.214952,-0.176567 -0.391519,-0.383842 -0.176568,-0.214952 -0.399196,-0.383842 -0.05374,-0.153537 -0.14586,-0.253336 -0.08444,-0.0998 -0.168891,-0.230305 -0.03838,-0.05374 -0.06142,-0.0998 -0.01535,-0.04606 -0.04606,-0.107476 -0.02303,-0.06141 -0.07677,-0.08445 -0.04606,-0.02303 -0.08445,-0.05374 -0.06142,-0.237982 -0.176568,-0.43758 -0.115153,-0.199598 -0.268689,-0.383842 -0.04606,0.08445 -0.07677,0.184244 -0.02303,0.09212 -0.04606,0.191921 -0.02303,0.09212 -0.06142,0.191922 -0.03071,0.09212 -0.08444,0.16889 v 0.02303 q 0,0.03838 0.03071,0.04606 0.03071,0.0077 0.03071,0.04606 0,0.0077 -0.0077,0.01535 0,0.0077 0,0.01535 -0.03838,0.03071 -0.06142,0.07677 -0.01535,0.04606 -0.07677,0.05374 0.0077,0.03838 0.0077,0.07677 v 0.06909 q 0,0.222628 -0.05374,0.445257 -0.04606,0.222628 -0.04606,0.452934 v 0.0998 q 0,0.05374 0.0077,0.0998 0.01535,0.04606 0.04606,0.09212 0.03071,0.04606 0.03071,0.08444 0,0.05374 -0.04606,0.0998 0.05374,0.03838 0.122829,0.08444 0.06909,0.04606 0.12283,0.0998 0.06142,0.06141 0.0998,0.12283 0.03838,0.06909 0.03838,0.14586 0,0.130506 -0.08445,0.184244 -0.08445,0.05374 -0.207275,0.08445 -0.115153,0.03071 -0.245659,0.05374 -0.12283,0.03071 -0.207275,0.0998 h -0.02303 q -0.09212,0 -0.138183,-0.05374 -0.04606,-0.05374 -0.138183,-0.05374 -0.14586,-0.237983 -0.199598,-0.53738 -0.05374,-0.29172 -0.05374,-0.560409 0,-0.330105 0.06142,-0.660209 0.05374,-0.330104 0.138183,-0.652532 0.07677,-0.322427 0.168891,-0.637178 0.0998,-0.322428 0.184244,-0.644855 l 0.0077,-0.02303 q 0,-0.03838 -0.02303,-0.05374 -0.01535,-0.01535 -0.01535,-0.04606 0,-0.01535 0.0077,-0.01535 0.02303,-0.07677 0.04606,-0.14586 0.03071,-0.06909 0.04606,-0.153537 0.04606,-0.214952 0.06141,-0.437581 0.02303,-0.230305 0.02303,-0.452934 0.0077,-0.222628 0.01535,-0.445257 0.01535,-0.230305 0.05374,-0.452933 0.06142,-0.06141 0.115153,-0.130507 0.05374,-0.06909 0.138183,-0.122829 0.153537,0.0077 0.307074,0.04606 0.153537,0.03838 0.29172,0.122829 0.09212,0.330105 0.12283,0.660209 0.03838,0.330104 0.122829,0.660209 v 0.02303 q 0,0.03838 0.03839,0.03838 0.04606,-0.0077 0.06909,0.02303 -0.01535,0.02303 -0.02303,0.05374 0,0.03071 0,0.06141 v 0.130506 q 0.01535,0.06141 0.03838,0.130506 0.02303,0.06909 0.0998,0.08445 0.03838,0.245659 0.115153,0.452934 0.07677,0.207275 0.176567,0.399196 0.0998,0.191921 0.214952,0.383842 0.115152,0.184244 0.237982,0.391519 0.191921,0.14586 0.330104,0.337781 0.138184,0.184245 0.276367,0.360812 0.14586,0.168891 0.322427,0.299397 0.184245,0.130506 0.475965,0.161214 0.03838,-0.03071 0.05374,-0.08445 l 0.03838,-0.107476 q 0.02303,-0.05374 0.04606,-0.09212 0.03071,-0.04606 0.08444,-0.06909 0.01535,-0.214952 0.03071,-0.43758 0.02303,-0.222629 0.0998,-0.422227 -0.03838,-0.06909 -0.03838,-0.16889 0,-0.07677 0.0077,-0.145861 0.01535,-0.06909 0.01535,-0.138183 0,-0.14586 -0.06142,-0.237982 0,-0.05374 0.0077,-0.107476 0.0077,-0.06142 0.04606,-0.115152 -0.06142,-0.153537 -0.0998,-0.322428 -0.03071,-0.168891 -0.03071,-0.345458 0,-0.0998 0.02303,-0.207275 -0.04606,-0.115153 -0.06141,-0.26869 l -0.03071,-0.31475 q -0.01535,-0.161214 -0.04606,-0.299397 -0.03071,-0.138183 -0.115153,-0.222629 0.04606,-0.06909 0.04606,-0.161213 0,-0.153537 -0.04606,-0.291721 -0.04606,-0.138183 -0.04606,-0.29172 0,-0.107476 0.04606,-0.214951 0.168891,0.0077 0.330105,0.03838 0.16889,0.02303 0.330104,0.02303 0.04606,0.06142 0.107476,0.0998 0.06142,0.03838 0.130506,0.07677 0.06909,0.03071 0.130507,0.06909 0.06909,0.03838 0.107476,0.107476 z m 5.926525,1.259003 q 0,0.07677 -0.05374,0.0998 -0.05374,0.02303 -0.05374,0.09212 0,0.02303 0.01535,0.03838 0.01535,0.01535 0.01535,0.04606 v 0.03071 q -0.09212,0.445257 -0.268689,0.775361 -0.168891,0.330105 -0.399196,0.606471 -0.230306,0.276366 -0.522026,0.522026 -0.284043,0.245659 -0.614147,0.514348 -0.09212,0.07677 -0.191922,0.153537 -0.09212,0.07677 -0.176567,0.161214 l -0.168891,0.161214 q -0.0077,0.0077 -0.08445,0.03838 -0.07677,0.02303 -0.09212,0.03071 -0.107476,0.04606 -0.230305,0.107476 -0.115153,0.06142 -0.199598,0.153537 -0.153537,0 -0.261013,0.04606 -0.107476,0.04606 -0.237982,0.12283 -0.03839,0 -0.06909,-0.01535 -0.02303,-0.01535 -0.05374,-0.03071 -0.03071,-0.01535 -0.06909,-0.01535 -0.03071,-0.0077 -0.08444,0.0077 -0.09212,-0.153537 -0.199598,-0.261013 -0.107476,-0.107476 -0.29172,-0.130506 -0.02303,-0.130507 -0.107476,-0.199598 -0.08444,-0.07677 -0.16889,-0.161214 -0.01535,-0.04606 -0.02303,-0.107476 -0.0077,-0.06141 -0.03071,-0.115153 -0.02303,-0.05374 -0.06142,-0.09212 -0.03838,-0.03838 -0.107476,-0.03838 -0.0077,-0.04606 0.03838,-0.04606 0.04606,0 0.04606,-0.03838 0,-0.04606 -0.01535,-0.09212 -0.01535,-0.04606 -0.01535,-0.0998 0,-0.03838 0.0077,-0.06909 0.0077,-0.03071 0.02303,-0.06909 -0.02303,-0.207275 -0.02303,-0.422226 0,-0.41455 0.05374,-0.813746 0.06141,-0.406873 0.06141,-0.821422 0,-0.184245 -0.02303,-0.368489 -0.01535,-0.184244 -0.06909,-0.360812 -0.176567,0.03838 -0.353135,0.09212 -0.176567,0.04606 -0.330104,0.130507 -0.08445,-0.05374 -0.176567,-0.06142 -0.0998,-0.01535 -0.191922,-0.04606 -0.05374,-0.107476 -0.05374,-0.222629 0,-0.107475 0.03838,-0.207274 l 0.07677,-0.199598 q 0.184244,-0.03838 0.368489,-0.115153 0.176567,-0.07677 0.360812,-0.138183 0.06141,-0.01535 0.153536,-0.03839 0.0998,-0.02303 0.138184,-0.03838 0.05374,-0.02303 0.06909,-0.08444 0.02303,-0.06909 0.06142,-0.115153 h 0.130506 q 0.04606,0 0.0998,0.0077 0.05374,0 0.0998,0.02303 0.276367,-0.06909 0.552733,-0.08445 0.276367,-0.02303 0.568087,-0.06142 0.03071,0 0.09212,-0.0077 l 0.130506,-0.02303 q 0.06909,-0.01535 0.12283,-0.02303 0.06142,-0.01535 0.08444,-0.01535 0.02303,0 0.02303,0.02303 h 0.130506 q 0.330105,0 0.644855,0.08445 l 0.629502,0.16889 q 0.130506,0.107476 0.261012,0.207275 0.130507,0.0998 0.291721,0.176568 0.03838,0.122829 0.115152,0.199598 0.08445,0.06909 0.184245,0.153537 0.03838,0.0998 0.0998,0.214951 0.06909,0.107476 0.130506,0.222629 0.06142,0.115152 0.107476,0.230305 0.04606,0.107476 0.04606,0.207275 z m -0.713947,0.115153 q -0.08445,-0.176568 -0.161214,-0.368489 -0.07677,-0.191921 -0.191921,-0.345458 -0.138183,-0.03838 -0.284043,-0.09212 -0.138183,-0.06141 -0.191921,-0.207275 -0.01535,0.0077 -0.05374,0.0077 -0.06909,0 -0.12283,-0.05374 -0.05374,-0.05374 -0.122829,-0.06909 -0.06142,-0.0077 -0.168891,-0.02303 -0.0998,-0.01535 -0.214951,-0.02303 -0.115153,-0.0077 -0.230306,-0.01535 -0.107476,-0.0077 -0.16889,-0.0077 -0.06142,0 -0.130507,0.0077 -0.06142,0 -0.130506,0.0077 -0.06142,0 -0.07677,0.02303 -0.01535,0.01535 -0.06141,0.03071 -0.03839,-0.01535 -0.08445,-0.01535 h -0.09212 q -0.161214,0 -0.322427,0.05374 -0.153537,0.04606 -0.307074,0.130506 v 0.03071 q 0,0.06142 0.05374,0.06909 0.05374,0.0077 0.06141,0.06141 -0.03838,0 -0.06141,0.0077 -0.02303,0 -0.02303,0.05374 0,0.07677 0.01535,0.168891 0.02303,0.09212 0.02303,0.184244 0,0.06909 -0.01535,0.161214 -0.01535,0.09212 -0.07677,0.14586 0.07677,0.06909 0.07677,0.184244 0,0.07677 -0.03071,0.161214 -0.03071,0.08445 -0.07677,0.14586 -0.01535,0.322428 -0.06142,0.652532 -0.04606,0.330105 -0.04606,0.652532 0,0.161214 0.01535,0.314751 0.02303,0.153537 0.06909,0.307074 0.08445,0.08444 0.176568,0.130506 0.0998,0.04606 0.207275,0.09212 v 0.02303 q 0,0.02303 -0.03071,0.04606 -0.03071,0.02303 -0.03071,0.06142 0,0.03071 0.03071,0.03071 0.322428,-0.09212 0.606471,-0.222629 0.284043,-0.130506 0.529702,-0.353135 0.02303,-0.02303 0.04606,-0.02303 0.01535,0 0.03839,0.0077 0.03071,0.0077 0.05374,0.01535 l -0.0077,-0.03071 q 0,-0.04606 0.02303,-0.08444 0.03071,-0.03838 0.06909,-0.06909 l 0.07677,-0.06909 q 0.03838,-0.03839 0.06141,-0.07677 0.06142,-0.01535 0.08445,-0.06141 0.03071,-0.04606 0.0998,-0.04606 0.01535,-0.08445 0.08445,-0.122829 0.06909,-0.04606 0.08445,-0.130507 0.153537,-0.08445 0.26869,-0.207274 0.122829,-0.12283 0.222628,-0.261013 0.107476,-0.138183 0.199598,-0.284044 0.09212,-0.153536 0.191921,-0.29172 v -0.03071 q 0,-0.12283 0.03838,-0.199598 0.04606,-0.07677 0.06909,-0.184244 z m 15.292277,0.09212 q -0.01535,0.09212 -0.05374,0.207275 -0.03071,0.115152 -0.09212,0.214951 -0.05374,0.09212 -0.138183,0.161214 -0.08445,0.06142 -0.199598,0.06142 -0.08445,0 -0.168891,-0.01535 -0.08444,-0.02303 -0.176567,-0.02303 -0.03838,0 -0.08445,0.03071 -0.03838,0.02303 -0.07677,0.02303 -0.03838,0 -0.06909,-0.0077 -0.02303,-0.01535 -0.06142,-0.01535 -0.02303,0 -0.08444,0.01535 -0.06142,0.01535 -0.130506,0.03071 -0.06909,0.01535 -0.130507,0.03838 -0.06141,0.01535 -0.08444,0.02303 -0.207275,0.06909 -0.41455,0.122829 -0.207274,0.05374 -0.429903,0.06909 -0.04606,-0.01535 -0.138183,-0.03071 -0.09212,-0.02303 -0.138183,-0.02303 -0.09212,0 -0.12283,0.07677 -0.02303,0.07677 -0.0998,0.115152 -0.09212,0.05374 -0.230305,0.06142 -0.138184,0.0077 -0.276367,0.02303 -0.138183,0.01535 -0.261013,0.06141 -0.115152,0.03838 -0.16889,0.153537 -0.03838,-0.0077 -0.08445,-0.0077 -0.03838,-0.0077 -0.08445,-0.0077 -0.245659,0 -0.46061,0.0998 -0.214952,0.09212 -0.437581,0.16889 0.03838,0.06909 0.05374,0.168891 0.01535,0.0998 0.03071,0.199598 0.01535,0.09212 0.03838,0.184244 0.03071,0.08445 0.0998,0.130506 0,0.04606 -0.02303,0.07677 -0.01535,0.03071 -0.03838,0.05374 l -0.05374,0.05374 q -0.02303,0.02303 -0.03071,0.06909 -0.02303,0.09212 -0.02303,0.191921 0,0.09212 -0.107476,0.138184 0.0077,0.02303 0.0077,0.08444 0,0.07677 -0.02303,0.14586 -0.02303,0.06909 -0.01535,0.153537 -0.130506,0.14586 -0.222629,0.299397 -0.08445,0.153537 -0.130506,0.330104 -0.284043,0.284044 -0.58344,0.568087 -0.29172,0.29172 -0.606471,0.56041 -0.307074,0.268689 -0.637178,0.506672 -0.330105,0.245659 -0.68324,0.429903 h -0.05374 q -0.176568,0 -0.276367,0.06141 -0.0998,0.06141 -0.253336,0.107475 -0.115153,-0.03071 -0.276366,-0.03071 -0.09212,0 -0.191921,0.0077 -0.09212,0.0077 -0.191922,0.0077 -0.130506,0 -0.237982,-0.03071 -0.0998,-0.03071 -0.199598,-0.06909 -0.09212,-0.03838 -0.191921,-0.07677 -0.0998,-0.03838 -0.214952,-0.05374 -0.475964,-0.475964 -0.752331,-1.113142 -0.276366,-0.629502 -0.276366,-1.297387 0,-0.307074 0.08445,-0.598794 0.08445,-0.299397 0.08445,-0.598794 0.138183,-0.276367 0.237982,-0.568087 0.107476,-0.29172 0.214952,-0.58344 0.107475,-0.29172 0.230305,-0.568087 0.130506,-0.284043 0.307074,-0.537379 0.03838,-0.199598 0.122829,-0.345458 0.08445,-0.14586 0.184245,-0.322427 0,-0.168891 0.06909,-0.307074 0.07677,-0.14586 0.09212,-0.322428 0.12283,-0.115152 0.199598,-0.261013 0.07677,-0.14586 0.14586,-0.299397 0.06909,-0.153536 0.153537,-0.29172 0.09212,-0.14586 0.245659,-0.245659 0.01535,-0.05374 0.01535,-0.115152 0.0077,-0.06909 0.03838,-0.107476 l 0.161214,-0.176568 q 0.07677,-0.0998 0.138183,-0.199598 0.06909,-0.107476 0.14586,-0.191921 0.04606,-0.04606 0.0998,-0.07677 0.05374,-0.03071 0.09212,-0.06909 0.03838,-0.03838 0.02303,-0.0998 -0.0077,-0.06142 0.03071,-0.0998 0.01535,-0.01535 0.04606,-0.03071 0.03071,-0.01535 0.05374,-0.03071 0.0998,-0.06909 0.168891,-0.138183 0.06909,-0.06909 0.191921,-0.0998 0.107476,-0.08444 0.191921,-0.168891 0.09212,-0.08445 0.184245,-0.153536 0.09212,-0.06909 0.199598,-0.107476 0.107476,-0.04606 0.268689,-0.04606 0.03071,0 0.06141,0.0077 0.03071,0 0.06142,0 0.31475,0.291721 0.391519,0.713947 -0.08444,0.107476 -0.138183,0.230306 -0.04606,0.122829 -0.107476,0.245659 -0.130507,0.04606 -0.245659,0.138183 -0.115153,0.08444 -0.230306,0.176567 -0.107475,0.09212 -0.230305,0.161214 -0.115153,0.06909 -0.261013,0.06909 -0.06141,0.05374 -0.199598,0.176567 -0.130506,0.115153 -0.276366,0.245659 -0.138183,0.130507 -0.261013,0.245659 -0.115153,0.115153 -0.14586,0.161214 -0.02303,0.03838 -0.03838,0.06909 -0.01535,0.03071 -0.03071,0.06909 l -0.199598,0.337781 q -0.16889,0.291721 -0.345458,0.575764 -0.176567,0.276366 -0.307073,0.58344 -0.06142,0.138183 -0.0998,0.276367 -0.03839,0.138183 -0.07677,0.29172 -0.01535,0.04606 -0.03838,0.09212 -0.02303,0.04606 -0.03838,0.08445 -0.08445,0.161214 -0.138184,0.299397 -0.05374,0.138183 -0.06141,0.322428 -0.191922,0.429903 -0.360812,0.867483 -0.161214,0.429904 -0.245659,0.890514 0.04606,0.153537 0.03838,0.314751 0,0.153537 0,0.307074 0,0.191921 0.02303,0.314751 0.03071,0.130506 0.07677,0.230305 0.05374,0.107476 0.115153,0.214952 0.06141,0.115152 0.130506,0.268689 0.115153,0.09212 0.207275,0.191921 0.09212,0.107476 0.176567,0.230306 0.291721,0.14586 0.591118,0.14586 0.214951,0 0.43758,-0.06909 0.222628,-0.06909 0.429903,-0.176567 0.214952,-0.0998 0.41455,-0.222629 0.199598,-0.122829 0.383842,-0.237982 0.322428,-0.191921 0.56041,-0.41455 0.237982,-0.222628 0.429903,-0.468287 0.199598,-0.245659 0.368489,-0.522026 0.16889,-0.284043 0.353135,-0.598794 0.0077,-0.03838 0.03071,-0.09212 l 0.04606,-0.115153 q 0.02303,-0.06141 0.03838,-0.107475 0.02303,-0.05374 0.02303,-0.06909 0,-0.06141 -0.03071,-0.08444 -0.02303,-0.03071 -0.02303,-0.06142 0,-0.06141 0.03071,-0.08444 0.03071,-0.02303 0.06909,-0.04606 0.04606,-0.02303 0.07677,-0.05374 0.03838,-0.03071 0.03838,-0.115153 -0.01535,-0.0077 -0.05374,-0.0077 -0.03838,0 -0.07677,0.0077 -0.03838,0.0077 -0.07677,0.0077 -0.09212,0 -0.153537,-0.06141 -0.03838,0.01535 -0.07677,0.05374 -0.03838,0.03071 -0.07677,0.06909 -0.03071,0.03838 -0.06142,0.06909 -0.03071,0.03071 -0.05374,0.03071 -0.03838,0 -0.06141,-0.01535 -0.01535,-0.01535 -0.04606,-0.01535 -0.130506,0 -0.230305,0.06142 -0.0998,0.06141 -0.214952,0.0998 -0.02303,0 -0.04606,0 -0.02303,-0.0077 -0.04606,-0.0077 -0.08445,0 -0.16889,0.03071 -0.07677,0.02303 -0.153537,0.05374 -0.06909,0.03071 -0.14586,0.05374 -0.07677,0.02303 -0.153537,0.01535 -0.168891,0.06142 -0.314751,0.130506 -0.138183,0.06909 -0.322427,0.05374 -0.05374,0.02303 -0.115153,0.05374 -0.05374,0.02303 -0.107476,0.06142 -0.04606,0.01535 -0.06909,0.01535 -0.03838,0 -0.06141,-0.03838 -0.06141,0.06909 -0.161214,0.0998 -0.0998,0.02303 -0.207275,0.04606 -0.107476,0.01535 -0.207275,0.04606 -0.09212,0.02303 -0.14586,0.0998 -0.08445,-0.06909 -0.199598,-0.06909 -0.115153,0 -0.222628,0.04606 -0.107476,0.03838 -0.230306,0.03838 -0.04606,0 -0.06141,-0.01535 -0.03071,-0.08445 -0.06909,-0.168891 -0.03838,-0.08445 -0.12283,-0.12283 -0.01535,-0.08445 -0.03071,-0.161213 -0.0077,-0.08445 -0.0077,-0.161214 0,-0.207275 0.12283,-0.376166 0.107475,-0.03838 0.214951,-0.06141 0.115153,-0.03071 0.222629,-0.06909 0.08445,0.01535 0.16889,0.02303 0.08445,0.0077 0.168891,0.0077 0.314751,0 0.614148,-0.07677 0.299397,-0.08444 0.591117,-0.176567 0.276366,-0.08445 0.56041,-0.153537 0.284043,-0.06909 0.568086,-0.153537 0.26869,-0.06909 0.529703,-0.153537 0.261012,-0.09212 0.545056,-0.115153 0.184244,-0.130506 0.445257,-0.176567 0.268689,-0.04606 0.491318,-0.0998 0.353135,-0.08445 0.698593,-0.168891 0.345458,-0.09212 0.70627,-0.161214 0.399196,-0.08445 0.775361,-0.207275 0.383842,-0.122829 0.767685,-0.261012 h 0.07677 q 0.130506,0 0.26869,-0.03071 0.138183,-0.03071 0.276366,-0.03071 0.03838,0 0.06142,0.0077 0.03071,0 0.06141,0 0.02303,0 0.115152,-0.03071 0.09212,-0.03838 0.130507,-0.05374 0.0998,0.107476 0.222628,0.191922 0.12283,0.08445 0.214952,0.191921 z m 2.43356,3.017 q -0.02303,0.107476 -0.0998,0.176568 -0.06909,0.06141 -0.168891,0.0998 -0.0998,0.03838 -0.207275,0.05374 -0.0998,0.0077 -0.184244,0.0077 -0.03838,0 -0.07677,0 -0.03071,-0.0077 -0.06909,-0.0077 -0.03838,0 -0.03838,0.03838 0,0.03838 -0.03838,0.05374 -0.03838,-0.01535 -0.07677,-0.02303 -0.03838,-0.0077 -0.07677,-0.0077 -0.05374,0 -0.107476,0.0077 -0.04606,0.0077 -0.09212,0.0077 -0.06142,0 -0.09212,-0.01535 -0.02303,-0.01535 -0.04606,-0.03071 -0.01535,-0.02303 -0.03838,-0.04606 -0.01535,-0.02303 -0.05374,-0.03838 -0.05374,-0.02303 -0.09212,-0.0077 -0.03071,0.01535 -0.0998,-0.04606 -0.09212,-0.07677 -0.161214,-0.184245 -0.06142,-0.115152 -0.122829,-0.237982 -0.06141,-0.122829 -0.130507,-0.245659 -0.06909,-0.122829 -0.161213,-0.214952 h -0.06142 q -0.138183,0 -0.191921,0.115153 -0.03839,-0.02303 -0.07677,-0.05374 -0.03838,-0.03838 -0.08444,-0.06141 -0.176568,0.05374 -0.368489,0.09212 -0.191921,0.03838 -0.383842,0.03838 h -0.107476 q -0.04606,0 -0.0998,-0.01535 -0.07677,0.03071 -0.138183,0.07677 -0.06141,0.03838 -0.138183,0.03838 -0.04606,0 -0.107476,-0.03071 -0.04606,0 -0.04606,0.03839 0.0077,0.03838 -0.04606,0.03838 h -0.06909 q -0.107476,0 -0.214952,0.0077 -0.0998,0.0077 -0.207274,0.0077 -0.14586,0 -0.299397,-0.03838 -0.03838,0.02303 -0.08445,0.02303 -0.03071,0.01535 -0.04606,0.05374 -0.01535,0.03071 -0.03071,0.06142 -0.01535,0.02303 -0.04606,0.04606 -0.02303,0.01535 -0.06909,0.0077 -0.01535,0.09212 -0.07677,0.14586 -0.06142,0.05374 -0.06142,0.161213 -0.08445,0.04606 -0.138183,0.115153 -0.05374,0.06909 -0.107476,0.14586 -0.05374,0.07677 -0.115153,0.14586 -0.05374,0.06909 -0.138183,0.107476 -0.03838,0.04606 -0.02303,0.14586 -0.08445,0.06909 -0.207274,0.12283 -0.12283,0.05374 -0.230306,0.05374 -0.222628,0 -0.307074,-0.237983 0,-0.07677 0.01535,-0.161213 0.0077,-0.09212 0.03071,-0.168891 0.02303,-0.08445 0.06909,-0.14586 0.04606,-0.06909 0.130506,-0.0998 0,-0.06909 -0.04606,-0.09212 -0.04606,-0.03071 -0.03838,-0.0998 0.207275,-0.0998 0.360812,-0.261013 0.153537,-0.161214 0.276366,-0.337781 0.130507,-0.184245 0.261013,-0.368489 0.130506,-0.184244 0.29172,-0.330104 v -0.161214 q 0.230306,-0.245659 0.299397,-0.552733 0.08445,-0.01535 0.107476,-0.07677 0.03071,-0.06141 0.03071,-0.14586 0.03838,0 0.04606,-0.03071 0.01535,-0.03838 0.06909,-0.02303 0.06909,-0.184245 0.153537,-0.337782 0.08445,-0.153536 0.168891,-0.307073 0.08445,-0.161214 0.14586,-0.330105 0.06909,-0.16889 0.0998,-0.376165 0.107476,-0.0077 0.115152,-0.0998 0.01535,-0.0998 0.03071,-0.176568 0.115152,-0.107475 0.16889,-0.253336 0.06141,-0.14586 0.107476,-0.299397 0.04606,-0.161213 0.0998,-0.31475 0.06141,-0.161214 0.168891,-0.284044 v -0.02303 q 0,-0.03838 -0.03071,-0.04606 -0.03071,-0.01535 -0.03071,-0.05374 0.0077,-0.0077 0.0077,-0.01535 0.09212,-0.03838 0.138183,-0.122829 0.04606,-0.09212 0.138183,-0.130507 0.161214,0.130507 0.284044,0.161214 0.122829,0.02303 0.322427,0.03838 0.0998,0.107476 0.107476,0.261013 0.01535,0.14586 0.05374,0.29172 0.06142,0.245659 0.130506,0.483642 0.07677,0.230305 0.115153,0.475964 0.02303,0.14586 0.08444,0.276366 0.06142,0.130507 0.08445,0.26869 0.01535,0.107476 0,0.245659 -0.01535,0.130506 0.03071,0.230305 l 0.05374,0.12283 q 0.03838,0.08445 0.06142,0.176567 0.03071,0.09212 0.05374,0.184245 0.06141,0.230305 0.107475,0.498995 0.05374,0.261013 0.161214,0.475964 0.03838,0.07677 0.115153,0.107476 0.08445,0.03071 0.184244,0.04606 0.0998,0.0077 0.191921,0.0077 0.0998,-0.0077 0.168891,-0.0077 h 0.07677 q 0.04606,0 0.09212,0.01535 0.03071,0.06142 0.03071,0.107476 0,0.09212 -0.06141,0.14586 -0.06142,0.05374 -0.06142,0.122829 0,0.03838 0.03071,0.08445 -0.03071,-0.0077 -0.09212,-0.0077 -0.176568,0 -0.345458,0.06141 0.06141,0.130507 0.161213,0.222629 0.107476,0.08445 0.222629,0.161214 0.07677,-0.06142 0.161214,-0.06142 0.09212,0 0.16889,0.04606 0.08445,0.03838 0.176568,0.03838 0.06909,0 0.0998,-0.02303 0.06142,0.06909 0.0998,0.14586 0.03838,0.06909 0.0998,0.130506 z m -2.402853,-1.228295 q -0.01535,-0.130507 -0.05374,-0.184244 -0.03071,-0.06142 -0.05374,-0.14586 -0.03071,-0.107476 -0.04606,-0.230306 -0.0077,-0.122829 -0.03071,-0.237982 -0.05374,-0.261013 -0.12283,-0.522026 -0.06141,-0.261012 -0.161214,-0.506671 0.03071,-0.04606 0.03071,-0.08445 v -0.02303 q -0.06909,-0.07677 -0.0998,-0.184245 -0.03071,-0.115152 -0.06141,-0.222628 -0.02303,-0.115153 -0.06909,-0.207275 -0.03838,-0.0998 -0.130506,-0.161214 -0.02303,0.04606 -0.02303,0.107476 0,0.05374 0.0077,0.0998 0.01535,0.04606 0.01535,0.0998 -0.07677,0.03838 -0.115153,0.12283 -0.03071,0.07677 -0.107476,0.122829 -0.06141,0.245659 -0.176567,0.468288 -0.115153,0.214951 -0.245659,0.429903 -0.12283,0.214952 -0.237982,0.43758 -0.115153,0.214952 -0.184245,0.452934 -0.0998,0.06909 -0.138183,0.176568 -0.03071,0.107476 -0.03071,0.214951 0.06909,0.03838 0.153537,0.04606 0.09212,0 0.176567,0 0.08445,0 0.161214,0.01535 0.07677,0.01535 0.138183,0.07677 0.0998,-0.03071 0.214952,-0.03839 0.122829,-0.01535 0.199598,-0.06909 0.153537,0.05374 0.330104,0.05374 0.09212,0 0.176568,-0.01535 0.09212,-0.01535 0.176567,-0.03838 0.06909,0.01535 0.107476,0.05374 0.03838,0.03071 0.115153,0.02303 0.03838,-0.03071 0.04606,-0.06141 0.0077,-0.03838 0.03838,-0.06909 z m 8.559684,-3.147507 q -0.03071,0.0998 -0.0998,0.184244 l -0.130506,0.161214 q -0.06142,0.07677 -0.107476,0.168891 -0.03838,0.08445 -0.02303,0.199598 -0.01535,0 -0.03838,0 -0.02303,-0.0077 -0.03838,-0.0077 -0.12283,0 -0.191921,0.06141 -0.06141,0.05374 -0.168891,0.09212 -0.01535,-0.04606 -0.03838,-0.08445 -0.02303,-0.04606 -0.06909,-0.06141 -0.184244,0.03838 -0.368488,0.06141 -0.184245,0.01535 -0.368489,0.04606 -0.08445,0.01535 -0.168891,0.04606 -0.08445,0.02303 -0.176567,0.04606 -0.04606,0.01535 -0.0998,0.01535 -0.05374,-0.0077 -0.107476,0 -0.184244,0.0077 -0.399196,0.03071 -0.214952,0.01535 -0.383842,0.115152 -0.07677,-0.01535 -0.161214,-0.02303 -0.08445,-0.0077 -0.168891,-0.0077 -0.184244,0 -0.406872,0.03838 -0.214952,0.03071 -0.383843,0.130507 -0.03838,-0.01535 -0.08444,-0.02303 -0.03838,-0.0077 -0.09212,-0.0077 -0.01535,0 -0.02303,0.0077 -0.0077,0 -0.02303,0 -0.0077,0.06909 0.01535,0.138183 0.03071,0.06142 0.0998,0.0998 -0.03071,0.08445 -0.03071,0.184245 0,0.130506 0.01535,0.261012 0.02303,0.130507 0.02303,0.261013 0,0.14586 -0.03838,0.230306 0.07677,0.230305 0.07677,0.491318 0,0.09212 -0.01535,0.184244 -0.0077,0.08444 -0.0077,0.184244 0,0.08445 0.06141,0.138184 0.06141,0.04606 0.06141,0.130506 0,0.03071 -0.01535,0.06141 0.107476,-0.02303 0.207275,-0.06141 0.0998,-0.04606 0.207274,-0.04606 0.06141,0 0.115153,0.02303 0.06141,0.02303 0.107476,0.06142 -0.0077,0.03838 -0.01535,0.08444 0,0.04606 0,0.09212 0,0.08445 0,0.161213 0.0077,0.06909 0.01535,0.153537 -0.06142,0.107476 -0.14586,0.191921 -0.07677,0.08445 -0.107476,0.214952 -0.115153,0 -0.207275,0.05374 -0.08445,0.04606 -0.161213,0.107476 -0.07677,0.05374 -0.153537,0.107476 -0.07677,0.04606 -0.168891,0.04606 -0.115153,0 -0.161214,-0.03071 -0.04606,-0.03838 -0.06909,-0.07677 -0.02303,-0.03838 -0.04606,-0.06909 -0.01535,-0.03071 -0.07677,-0.02303 -0.01535,-0.0998 -0.06141,-0.184244 -0.04606,-0.09212 -0.0998,-0.176568 -0.04606,-0.08444 -0.0998,-0.168891 -0.04606,-0.09212 -0.06909,-0.184244 -0.04606,-0.199598 -0.03838,-0.41455 0.0077,-0.214951 -0.06909,-0.414549 0.01535,-0.107476 0.02303,-0.214952 0.0077,-0.115153 0.0077,-0.222628 0,-0.214952 -0.01535,-0.422227 -0.0077,-0.214952 -0.01535,-0.43758 -0.05374,-0.06909 -0.06909,-0.153537 -0.0077,-0.09212 -0.01535,-0.176568 -0.02303,-0.02303 -0.05374,-0.04606 -0.02303,-0.02303 -0.03071,-0.06141 -0.06142,-0.01535 -0.09212,-0.01535 -0.107476,0 -0.184244,0.05374 -0.06909,0.04606 -0.130507,0.04606 -0.06141,0 -0.115152,-0.01535 -0.05374,-0.01535 -0.107476,-0.01535 -0.04606,0 -0.05374,0.02303 0,0.01535 -0.03071,0.03071 -0.02303,0.01535 -0.107476,0.03071 -0.08445,0.01535 -0.191921,0.03071 -0.0998,0.0077 -0.199598,0.01535 -0.09212,0.0077 -0.12283,0.0077 -0.122829,0 -0.184244,-0.04606 -0.06909,-0.05374 -0.161214,-0.115153 0.01535,-0.04606 0.01535,-0.06141 0,-0.07677 -0.04606,-0.122829 -0.04606,-0.05374 -0.04606,-0.09212 0,-0.08445 0.06909,-0.130507 0.06142,-0.04606 0.06909,-0.14586 0.176567,-0.07677 0.360812,-0.115153 0.184244,-0.03838 0.376165,-0.06141 0.191921,-0.02303 0.376165,-0.05374 0.191922,-0.03071 0.376166,-0.0998 0.05374,0.0077 0.0998,0.01535 0.05374,0 0.107476,0 0.230305,0 0.452934,-0.04606 0.230305,-0.05374 0.468287,-0.05374 0.06141,0 0.12283,0.0077 0.06141,0.0077 0.122829,0.02303 0.307074,-0.04606 0.606471,-0.0998 0.307074,-0.05374 0.629501,-0.09212 0.153537,-0.01535 0.299397,-0.02303 0.153537,-0.01535 0.307074,-0.03838 0.05374,-0.0077 0.07677,-0.02303 0.03071,-0.02303 0.03071,-0.08444 0.06909,0.03071 0.153537,0.03071 0.130506,0 0.253336,-0.04606 0.12283,-0.04606 0.253336,-0.04606 0.03071,0 0.05374,0.0077 0.02303,0 0.04606,0 0.05374,0 0.05374,-0.04606 0.0077,-0.05374 0.07677,-0.06909 0.05374,-0.01535 0.153537,-0.02303 0.0998,-0.0077 0.207275,-0.01535 0.115153,-0.01535 0.207275,-0.03071 0.0998,-0.02303 0.14586,-0.06142 l 0.05374,-0.08445 q 0.138183,0.0077 0.199598,0.122829 0.06909,0.107476 0.07677,0.237983 0.03071,0.03071 0.08445,0.03071 0.06141,-0.0077 0.107475,-0.0077 z m 3.784687,0.05374 v 0.03071 q -0.05374,0.01535 -0.05374,0.07677 -0.08445,0.03838 -0.176568,0.06142 -0.09212,0.01535 -0.176567,0.05374 -0.08445,-0.0077 -0.176568,-0.0077 -0.08445,-0.0077 -0.16889,-0.0077 -0.230306,0 -0.460611,0.01535 -0.230305,0.01535 -0.460611,0 -0.107476,0.06141 -0.237982,0.0998 -0.12283,0.03071 -0.237982,0.03071 -0.09212,0 -0.161214,-0.02303 -0.184244,0.09212 -0.406873,0.153537 -0.214952,0.06142 -0.43758,0.12283 -0.222629,0.05374 -0.429903,0.130506 -0.199598,0.06909 -0.353135,0.199598 -0.01535,0.107476 -0.02303,0.214952 -0.0077,0.0998 -0.0077,0.199598 0,0.107476 0.0077,0.199598 0.01535,0.09212 0.05374,0.184244 0.03838,0.01535 0.08445,0.02303 0.05374,0.0077 0.09212,0.0077 0.03838,0 0.07677,-0.0077 0.03838,-0.01535 0.05374,-0.05374 0.115153,-0.01535 0.230305,-0.0077 0.115153,0 0.230306,0 0.115152,0 0.222628,-0.0077 0.115153,-0.0077 0.222629,-0.03838 0.122829,-0.03071 0.237982,-0.03838 0.122829,-0.0077 0.237982,-0.01535 0.115153,-0.0077 0.237982,-0.02303 0.12283,-0.02303 0.253336,-0.08445 0.0998,0.03838 0.199598,0.03838 0.107476,0 0.207275,0.01535 0.05374,0.03838 0.08445,0.08445 0.03838,0.04606 0.03838,0.107476 0,0.107476 -0.07677,0.214952 -0.07677,0.107476 -0.122829,0.199598 h -0.08445 q -0.184244,0 -0.360811,0.05374 -0.168891,0.04606 -0.345458,0.115152 -0.168891,0.06141 -0.345459,0.115153 -0.16889,0.04606 -0.353134,0.04606 -0.03071,0 -0.03839,0.03838 0,0.03071 -0.01535,0.04606 -0.03838,-0.0077 -0.115153,-0.0077 -0.176568,0 -0.337781,0.03838 -0.161214,0.03838 -0.330105,0.03838 -0.04606,0 -0.09212,0 -0.04606,-0.0077 -0.09212,-0.01535 -0.03838,0.06142 -0.0998,0.08445 -0.06142,0.01535 -0.115153,0.06142 -0.02303,0.06909 -0.03071,0.16889 0,0.0998 -0.0077,0.207275 0,0.0998 -0.01535,0.191921 -0.01535,0.09212 -0.06141,0.14586 0.0077,0.03838 0.06141,0.03071 0.05374,-0.01535 0.05374,0.04606 0,0.06909 -0.01535,0.14586 -0.01535,0.07677 -0.01535,0.153537 0,0.14586 0.03071,0.322427 0.03838,0.168891 0.107476,0.314751 0.07677,0.14586 0.199598,0.245659 0.12283,0.09212 0.307074,0.09212 0.12283,0 0.230305,-0.04606 0.107476,-0.04606 0.176568,-0.153537 l 0.03838,-0.0077 q 0.03071,0 0.05374,0.0077 0.03071,0.0077 0.06141,0.0077 0.04606,0 0.115152,-0.05374 0.07677,-0.06142 0.161214,-0.138183 0.09212,-0.07677 0.184245,-0.14586 0.09212,-0.07677 0.176567,-0.107476 0.05374,-0.107476 0.0998,-0.214952 0.05374,-0.107476 0.153537,-0.16889 V 35.44113 q 0.07677,-0.08445 0.161214,-0.153537 0.09212,-0.06909 0.138183,-0.176567 0.03838,0.01535 0.06909,0.02303 0.03838,0.0077 0.07677,0.0077 0.03838,0 0.07677,-0.0077 0.04606,-0.0077 0.08445,-0.02303 0.06141,0.08444 0.09212,0.191921 0.03838,0.0998 0.09212,0.191921 -0.06909,0.138183 -0.161214,0.330104 -0.09212,0.191921 -0.199598,0.383843 -0.107476,0.191921 -0.230305,0.368488 -0.115153,0.168891 -0.230305,0.261013 -0.02303,0.02303 -0.0998,0.05374 -0.08445,0.06141 -0.153537,0.115153 -0.06909,0.06141 -0.130507,0.138183 -0.222628,0.06909 -0.429903,0.184244 -0.199598,0.115153 -0.399196,0.222629 -0.09212,-0.02303 -0.199598,-0.02303 -0.09212,0 -0.184244,0.0077 -0.09212,0.01535 -0.199598,0.01535 -0.03071,-0.03839 -0.09212,-0.05374 -0.05374,-0.0077 -0.03838,-0.07677 -0.261013,-0.01535 -0.422226,-0.14586 -0.161214,-0.122829 -0.276367,-0.307074 -0.107476,-0.184244 -0.176567,-0.399196 -0.06909,-0.214951 -0.14586,-0.414549 v -0.02303 q 0,-0.03838 0.03071,-0.04606 0.03071,-0.0077 0.03071,-0.04606 0,-0.01535 -0.0077,-0.02303 -0.02303,-0.08445 -0.03839,-0.14586 -0.01535,-0.06141 -0.01535,-0.14586 0,-0.122829 0.01535,-0.237982 0.01535,-0.122829 0.01535,-0.245659 0,-0.12283 -0.03071,-0.214952 0.03071,-0.03838 0.05374,-0.0998 0.01535,-0.06909 0.02303,-0.138183 0.0077,-0.06909 0.0077,-0.138183 0.0077,-0.06909 0.02303,-0.12283 -0.03071,-0.08445 -0.05374,-0.14586 -0.02303,-0.06909 -0.02303,-0.161213 v -0.05374 q 0.07677,-0.130507 0.130506,-0.26869 0.05374,-0.138183 0.115153,-0.284043 v -0.02303 q 0,-0.222628 -0.01535,-0.445257 -0.01535,-0.222628 -0.01535,-0.445257 v -0.14586 q 0,-0.07677 0.0077,-0.14586 0.06141,-0.03071 0.09212,-0.08445 0.03071,-0.05374 0.09212,-0.08445 h 0.253336 l 0.04606,-0.07677 q 0.02303,-0.03838 0.03071,-0.08445 0.08445,-0.02303 0.161214,-0.06141 0.08444,-0.04606 0.153537,-0.09212 0.107476,-0.06142 0.191921,-0.107476 0.09212,-0.05374 0.176568,-0.08445 0.09212,-0.03838 0.191921,-0.06141 0.0998,-0.02303 0.230305,-0.03839 0.06141,0 0.07677,-0.02303 0.02303,-0.02303 0.06141,-0.05374 0.09212,0.01535 0.184245,0.03071 0.09212,0.0077 0.184244,0.0077 0.184244,0 0.345458,-0.06909 0.230305,0 0.452934,-0.0077 0.230305,-0.0077 0.460611,-0.0077 0.199598,0 0.399196,0.01535 0.199598,0.01535 0.391519,0.05374 0.06909,-0.02303 0.153537,-0.02303 0.09212,0 0.184244,0.02303 0.0998,0.01535 0.191921,0 0.0077,0.08444 0.03838,0.14586 0.03838,0.05374 0.03838,0.130506 z"
       id="text4"
       inkscape:label="And Gate"
       transform="matrix(1.3689028,0,0,1.2195604,-17.135573,-8.109747)"
       aria-label="And Gate" />
  </g>
  <g
     id="g911"
     transform="translate(7.8009486)"
     style="display:inline;fill:#333333">
    <rect
       ry="5.2628322"
       y="2.80317"
       x="5.3014131"
       height="9.4488192"
       width="18.897638"
       id="rect861"
       style="opacity:1;vector-effect:none;fill:#333333;fill-opacity:1;stroke:none;stroke-width:0.574016;stroke-linecap:butt;stroke-linejoin:miter;stroke-miterlimit:4;stroke-dasharray:none;stroke-dashoffset:0;stroke-opacity:1" />
    <rect
       style="opacity:1;vector-effect:none;fill:#333333;fill-opacity:1;stroke:none;stroke-width:0.574016;stroke-linecap:butt;stroke-linejoin:miter;stroke-miterlimit:4;stroke-dasharray:none;stroke-dashoffset:0;stroke-opacity:1"
       id="rect863"
       width="18.897638"
       height="9.4488192"
       x="5.3014131"
       y="368.28354"
       ry="5.2628322" />
  </g>
  <g
     id="g915"
     transform="translate(-7.8009491)"
     style="display:inline;fill:#333333">
    <rect
       style="display:inline;opacity:1;vector-effect:none;fill:#333333;fill-opacity:1;stroke:none;stroke-width:0.574016;stroke-linecap:butt;stroke-linejoin:miter;stroke-miterlimit:4;stroke-dasharray:none;stroke-dashoffset:0;stroke-opacity:1"
       id="rect1497"
       width="18.897638"
       height="9.4488192"
       x="50.800949"
       y="2.80317"
       ry="5.2628322" />
    <rect
       ry="5.2628322"
       y="368.28354"
       x="50.800949"
       height="9.4488192"
       width="18.897638"
       id="rect1499"
       style="display:inline;opacity:1;vector-effect:none;fill:#333333;fill-opacity:1;stroke:none;stroke-width:0.574016;stroke-linecap:butt;stroke-linejoin:miter;stroke-miterlimit:4;stroke-dasharray:none;stroke-dashoffset:0;stroke-opacity:1"
       sodipodi:insensitive="true" />
  </g>
  <g
     id="g4"
     transform="translate(0.210378,-0.78282803)"
     style="display:inline">
    <g
       id="g906"
       transform="rotate(180,29.394811,195.07455)">
      <rect
         ry="3.0000002"
         y="99.366272"
         x="10"
         height="240"
         width="24"
         id="rect1741"
         style="opacity:1;vector-effect:none;fill:#666666;fill-opacity:1;stroke:none;stroke-width:2.4976;stroke-linecap:round;stroke-linejoin:miter;stroke-miterlimit:4;stroke-dasharray:none;stroke-dashoffset:0;stroke-opacity:1;paint-order:stroke fill markers"
         inkscape:label="In Rect" />
      <rect
         style="display:inline;opacity:1;vector-effect:none;fill:#333333;fill-opacity:1;stroke:none;stroke-width:2.48194;stroke-linecap:round;stroke-linejoin:miter;stroke-miterlimit:4;stroke-dasharray:none;stroke-dashoffset:0;stroke-opacity:1;paint-order:stroke fill markers"
         id="rect882"
         width="24"
         height="41.912998"
         x="10"
         y="52.453274"
         ry="2.9625001"
         inkscape:label="Out Rect" />
    </g>
    <g
       transform="matrix(1.0245879,0,0,0.99922872,15.322452,-53.284993)"
       id="g2424"
       style="display:inline"
       inkscape:label="Entradas">
      <path
         d="m 21.726562,68.812676 q -0.02344,0.109375 -0.101562,0.179688 -0.07031,0.0625 -0.171875,0.101562 -0.101563,0.03906 -0.210938,0.05469 -0.101562,0.0078 -0.1875,0.0078 -0.03906,0 -0.07813,0 -0.03125,-0.0078 -0.07031,-0.0078 -0.03906,0 -0.03906,0.03906 0,0.03906 -0.03906,0.05469 -0.03906,-0.01563 -0.07813,-0.02344 -0.03906,-0.0078 -0.07813,-0.0078 -0.05469,0 -0.109375,0.0078 -0.04687,0.0078 -0.09375,0.0078 -0.0625,0 -0.09375,-0.01563 -0.02344,-0.01563 -0.04687,-0.03125 -0.01563,-0.02344 -0.03906,-0.04687 -0.01563,-0.02344 -0.05469,-0.03906 -0.05469,-0.02344 -0.09375,-0.0078 -0.03125,0.01563 -0.101563,-0.04687 -0.09375,-0.07813 -0.164062,-0.1875 -0.0625,-0.117188 -0.125,-0.242188 -0.0625,-0.125 -0.132813,-0.25 -0.07031,-0.125 -0.164062,-0.21875 h -0.0625 q -0.140625,0 -0.195313,0.117188 -0.03906,-0.02344 -0.07813,-0.05469 -0.03906,-0.03906 -0.08594,-0.0625 -0.179688,0.05469 -0.375,0.09375 -0.195313,0.03906 -0.390625,0.03906 H 18.15625 q -0.04687,0 -0.101563,-0.01563 -0.07813,0.03125 -0.140625,0.07813 -0.0625,0.03906 -0.140625,0.03906 -0.04687,0 -0.109375,-0.03125 -0.04687,0 -0.04687,0.03906 0.0078,0.03906 -0.04687,0.03906 H 17.5 q -0.109375,0 -0.21875,0.0078 -0.101563,0.0078 -0.210938,0.0078 -0.148437,0 -0.304687,-0.03906 -0.03906,0.02344 -0.08594,0.02344 -0.03125,0.01563 -0.04687,0.05469 -0.01563,0.03125 -0.03125,0.0625 -0.01563,0.02344 -0.04687,0.04687 -0.02344,0.01563 -0.07031,0.0078 -0.01563,0.09375 -0.07813,0.148438 -0.0625,0.05469 -0.0625,0.164062 -0.08594,0.04687 -0.140625,0.117188 -0.05469,0.07031 -0.109375,0.148437 -0.05469,0.07813 -0.117187,0.148438 -0.05469,0.07031 -0.140625,0.109375 -0.03906,0.04687 -0.02344,0.148437 -0.08594,0.07031 -0.210937,0.125 -0.125,0.05469 -0.234375,0.05469 -0.226563,0 -0.3125,-0.242188 0,-0.07813 0.01563,-0.164062 0.0078,-0.09375 0.03125,-0.171875 0.02344,-0.08594 0.07031,-0.148438 0.04687,-0.07031 0.132813,-0.101562 0,-0.07031 -0.04687,-0.09375 -0.04687,-0.03125 -0.03906,-0.101563 0.210938,-0.101562 0.367188,-0.265625 0.15625,-0.164062 0.28125,-0.34375 0.132812,-0.1875 0.265624,-0.375 0.132813,-0.1875 0.296875,-0.335937 v -0.164063 q 0.234375,-0.25 0.304688,-0.5625 0.08594,-0.01563 0.109375,-0.07813 0.03125,-0.0625 0.03125,-0.148437 0.03906,0 0.04687,-0.03125 0.01563,-0.03906 0.07031,-0.02344 0.07031,-0.1875 0.15625,-0.34375 0.08594,-0.15625 0.171875,-0.3125 0.08594,-0.164062 0.148438,-0.335937 0.07031,-0.171875 0.101562,-0.382813 0.109375,-0.0078 0.117188,-0.101562 0.01563,-0.101563 0.03125,-0.179688 0.117187,-0.109375 0.171875,-0.257812 0.0625,-0.148438 0.109375,-0.304688 0.04687,-0.164062 0.101562,-0.320312 0.0625,-0.164063 0.171875,-0.289063 v -0.02344 q 0,-0.03906 -0.03125,-0.04687 -0.03125,-0.01563 -0.03125,-0.05469 0.0078,-0.0078 0.0078,-0.01563 0.09375,-0.03906 0.140625,-0.125 0.04687,-0.09375 0.140625,-0.132812 0.164062,0.132812 0.289062,0.164062 0.125,0.02344 0.328125,0.03906 0.101563,0.109375 0.109375,0.265625 0.01563,0.148437 0.05469,0.296875 0.0625,0.25 0.132812,0.492187 0.07813,0.234375 0.117188,0.484375 0.02344,0.148438 0.08594,0.28125 0.0625,0.132813 0.08594,0.273438 0.01563,0.109375 0,0.25 -0.01563,0.132812 0.03125,0.234375 l 0.05469,0.125 q 0.03906,0.08594 0.0625,0.179687 0.03125,0.09375 0.05469,0.1875 0.0625,0.234375 0.109375,0.507813 0.05469,0.265625 0.164062,0.484375 0.03906,0.07813 0.117188,0.109375 0.08594,0.03125 0.1875,0.04687 0.101562,0.0078 0.195312,0.0078 0.101563,-0.0078 0.171875,-0.0078 h 0.07813 q 0.04687,0 0.09375,0.01563 0.03125,0.0625 0.03125,0.109375 0,0.09375 -0.0625,0.148437 -0.0625,0.05469 -0.0625,0.125 0,0.03906 0.03125,0.08594 -0.03125,-0.0078 -0.09375,-0.0078 -0.179687,0 -0.351562,0.0625 0.0625,0.132813 0.164062,0.226563 0.109375,0.08594 0.226563,0.164062 0.07813,-0.0625 0.164062,-0.0625 0.09375,0 0.171875,0.04687 0.08594,0.03906 0.179688,0.03906 0.07031,0 0.101562,-0.02344 0.0625,0.07031 0.101563,0.148438 0.03906,0.07031 0.101562,0.132812 z m -2.445312,-1.25 q -0.01563,-0.132812 -0.05469,-0.1875 -0.03125,-0.0625 -0.05469,-0.148437 -0.03125,-0.109375 -0.04687,-0.234375 -0.0078,-0.125 -0.03125,-0.242188 -0.05469,-0.265625 -0.125,-0.53125 -0.0625,-0.265625 -0.164063,-0.515625 0.03125,-0.04687 0.03125,-0.08594 v -0.02344 q -0.07031,-0.07813 -0.101562,-0.1875 -0.03125,-0.117187 -0.0625,-0.226562 -0.02344,-0.117188 -0.07031,-0.210938 -0.03906,-0.101562 -0.132812,-0.164062 -0.02344,0.04687 -0.02344,0.109375 0,0.05469 0.0078,0.101562 0.01563,0.04687 0.01563,0.101563 -0.07813,0.03906 -0.117188,0.125 -0.03125,0.07813 -0.109375,0.125 -0.0625,0.25 -0.179687,0.476562 -0.117188,0.21875 -0.25,0.4375 -0.125,0.21875 -0.242188,0.445313 -0.117187,0.21875 -0.1875,0.460937 -0.101562,0.07031 -0.140625,0.179688 -0.03125,0.109375 -0.03125,0.21875 0.07031,0.03906 0.15625,0.04687 0.09375,0 0.179688,0 0.08594,0 0.164062,0.01563 0.07813,0.01563 0.140625,0.07813 0.101563,-0.03125 0.21875,-0.03906 0.125,-0.01563 0.203125,-0.07031 0.15625,0.05469 0.335938,0.05469 0.09375,0 0.179687,-0.01563 0.09375,-0.01563 0.179688,-0.03906 0.07031,0.01563 0.109375,0.05469 0.03906,0.03125 0.117187,0.02344 0.03906,-0.03125 0.04687,-0.0625 0.0078,-0.03906 0.03906,-0.07031 z"
         id="text7"
         style="font-size:8px;font-family:'Rock Salt';-inkscape-font-specification:'Rock Salt, @opsz=32';font-variation-settings:'opsz' 32;white-space:pre;fill:#fff8d5"
         inkscape:label="A"
         transform="matrix(0.73143019,0,0,0.76068171,7.988547,72.740225)"
         aria-label="a" />
      <path
         d="m 21.773437,63.875176 q 0,0.07031 -0.03125,0.132813 l -0.05469,0.117187 q -0.02344,0.05469 -0.04687,0.117188 -0.02344,0.0625 -0.01563,0.148437 -0.109375,0.125 -0.21875,0.242188 -0.109375,0.117187 -0.195313,0.265625 -0.08594,-0.0078 -0.132812,0.03906 -0.03906,0.04687 -0.0625,0.125 -0.164063,0.05469 -0.289063,0.171875 -0.125,0.109375 -0.21875,0.242188 -0.414062,0.171875 -0.773437,0.421875 -0.359375,0.25 -0.65625,0.585937 0.140625,0 0.273437,0.03125 0.140625,0.03125 0.273438,0.07031 0.140625,0.03125 0.273437,0.0625 0.132813,0.02344 0.273438,0.0078 0.101562,0.09375 0.226562,0.15625 0.132813,0.0625 0.257813,0.117188 0.132812,0.05469 0.25,0.125 0.125,0.07031 0.21875,0.171875 0,0.01563 -0.0078,0.03125 0,0.0078 0,0.02344 0,0.0625 0.03125,0.125 0.03125,0.05469 0.03125,0.117188 -0.03906,0.0625 -0.07031,0.132812 -0.03125,0.07031 -0.07813,0.125 -0.03906,0.05469 -0.09375,0.09375 -0.05469,0.03906 -0.148438,0.04687 -0.03906,0.132813 -0.125,0.210938 -0.08594,0.07031 -0.195312,0.132812 -0.101563,0.05469 -0.203125,0.117188 -0.101563,0.05469 -0.171875,0.148437 -0.234375,0.05469 -0.460938,0.15625 -0.21875,0.09375 -0.390625,0.273438 Q 19.125,68.976739 19,69.000176 q -0.117188,0.01563 -0.234375,0.01563 -0.164063,0 -0.265625,-0.0625 -0.101563,-0.07031 -0.117188,-0.25 0.02344,-0.05469 0.07031,-0.09375 l 0.101562,-0.07813 q 0.05469,-0.03906 0.09375,-0.07813 0.04687,-0.04687 0.07031,-0.109375 0.01563,0 0.03906,0.0078 0.02344,0 0.04687,0 0.09375,0 0.148438,-0.03906 0.05469,-0.03906 0.101562,-0.07813 0.05469,-0.03906 0.117188,-0.07031 0.0625,-0.03125 0.164062,-0.02344 0.05469,-0.101562 0.164063,-0.148437 0.109375,-0.05469 0.226562,-0.09375 0.117188,-0.04687 0.21875,-0.101563 0.109375,-0.0625 0.148438,-0.179687 -0.03906,-0.0625 -0.101563,-0.09375 -0.0625,-0.03906 -0.140625,-0.0625 l -0.148437,-0.04687 q -0.07031,-0.02344 -0.125,-0.05469 -0.08594,0.02344 -0.164063,0.02344 -0.164062,0 -0.320312,-0.03125 -0.15625,-0.03125 -0.320313,-0.03125 -0.148437,0 -0.257812,0.03906 -0.03906,-0.0078 -0.08594,-0.02344 -0.03906,-0.01563 -0.07813,-0.03125 -0.179687,0.07031 -0.375,0.07031 H 17.46875 q -0.0625,0 -0.125,0.01563 -0.08594,0.15625 -0.08594,0.335938 0,0.132812 0.03906,0.257812 0.03906,0.117188 0.07813,0.25 0.15625,0.140625 0.289062,0.335938 0.132813,0.1875 0.132813,0.414062 0,0.05469 -0.0078,0.08594 -0.07813,-0.05469 -0.203125,-0.05469 -0.109375,0 -0.210937,0.03125 -0.09375,0.03125 -0.203125,0.04687 -0.08594,-0.03906 -0.179688,-0.07813 -0.09375,-0.04687 -0.179687,-0.109375 -0.0625,-0.132812 -0.125,-0.25 -0.0625,-0.125 -0.15625,-0.234375 v -0.03125 q 0,-0.273437 -0.04687,-0.539062 -0.03906,-0.265625 -0.03906,-0.539063 0,-0.125 0.0078,-0.25 0.01563,-0.132812 0.07813,-0.242187 -0.02344,-0.1875 -0.02344,-0.390625 0,-0.40625 0.04687,-0.8125 0.04687,-0.40625 0.04687,-0.828125 0,-0.08594 -0.0078,-0.171875 0,-0.08594 -0.0078,-0.171875 h -0.03125 q -0.101562,0 -0.195312,0.03125 -0.09375,0.02344 -0.1875,0.05469 -0.09375,0.03125 -0.195312,0.0625 -0.101563,0.02344 -0.203125,0.02344 -0.0625,0.03125 -0.101563,0.0625 -0.03906,0.03125 -0.07813,0.05469 -0.03906,0.02344 -0.08594,0.03906 -0.05469,0.01563 -0.125,0.0078 -0.08594,0.05469 -0.132813,0.08594 -0.05469,0.02344 -0.148437,0.05469 -0.04687,0.01563 -0.07813,0.04687 l -0.0625,0.05469 q -0.03125,0.02344 -0.07031,0.04687 -0.03906,0.02344 -0.101562,0.02344 -0.05469,0 -0.07813,-0.0078 -0.04687,-0.03906 -0.07813,-0.09375 -0.03906,-0.05469 -0.07031,-0.101563 -0.03906,-0.05469 -0.07813,-0.09375 -0.04687,-0.04687 -0.109375,-0.07031 0.03125,-0.03906 0.03125,-0.0625 -0.0078,-0.03125 -0.0078,-0.07031 0,-0.02344 0.0078,-0.03125 0.03906,-0.140625 0.140625,-0.21875 0.101563,-0.08594 0.226563,-0.132812 0.125,-0.05469 0.257812,-0.09375 0.125,-0.03906 0.234375,-0.09375 0.304688,0.0078 0.554688,-0.05469 0.249999,-0.07031 0.515624,-0.195312 0.04687,0.02344 0.09375,0.02344 0.03906,0 0.07813,-0.0078 l 0.07813,-0.01563 q 0.09375,-0.07813 0.203125,-0.101563 0.109375,-0.02344 0.21875,-0.03906 0.109375,-0.01563 0.210938,-0.03125 0.101562,-0.02344 0.179687,-0.08594 h 0.03125 q 0.1875,0 0.375,-0.0625 0.195313,-0.0625 0.375,-0.04687 0.15625,-0.08594 0.289063,-0.109375 0.132812,-0.02344 0.304687,-0.02344 0.03906,0 0.09375,-0.03125 0.05469,-0.03906 0.132813,-0.03906 0.01563,0 0.02344,0.0078 0.01563,0 0.03125,0 0.07031,0 0.09375,-0.04687 0.03125,-0.04687 0.148438,-0.04687 0.05469,0 0.101562,0.0078 0.04687,0 0.09375,0 0.05469,0 0.07031,-0.03906 0.01563,-0.04687 0.07031,-0.03906 0.02344,0.03125 0.07813,0.03125 0.05469,-0.0078 0.08594,-0.0078 0.05469,0 0.0625,0.03125 0.125,-0.07813 0.273437,-0.101563 0.15625,-0.02344 0.296875,-0.02344 0.05469,0 0.109375,0.0078 0.05469,0 0.117188,0.0078 0.07031,-0.04687 0.164062,-0.04687 0.05469,0 0.171875,0.04687 0.125,0.04687 0.257813,0.109375 0.132812,0.0625 0.242187,0.132812 0.109375,0.07031 0.132813,0.117188 0.01563,0.01563 0.01563,0.07031 0.0078,0.05469 0.02344,0.09375 0.03906,0.09375 0.07031,0.179688 0.03906,0.07813 0.03906,0.179687 z m -0.867187,0.08594 q 0,-0.01563 -0.0078,-0.03125 0,-0.02344 0,-0.03906 -0.03906,-0.04687 -0.109375,-0.07031 -0.0625,-0.02344 -0.140625,-0.03906 -0.07031,-0.01563 -0.148437,-0.02344 -0.07031,-0.01563 -0.125,-0.03906 -0.164063,0.05469 -0.359375,0.05469 -0.179688,0 -0.320313,-0.05469 -0.07031,0.07031 -0.179687,0.109375 -0.109375,0.03906 -0.234375,0.0625 -0.117188,0.01563 -0.242188,0.02344 -0.117187,0 -0.210937,0 -0.03125,0 -0.109375,0.04687 -0.07813,0.04687 -0.140625,0.04687 -0.04687,0 -0.08594,-0.03906 -0.07031,0.05469 -0.195312,0.09375 -0.125,0.03906 -0.257813,0.07031 -0.132812,0.02344 -0.273437,0.05469 -0.132813,0.03125 -0.226563,0.0625 -0.09375,0.203125 -0.101562,0.445313 -0.0078,0.234375 -0.0078,0.460937 0,0.132813 -0.01563,0.257813 -0.01563,0.125 -0.01563,0.257812 0,0.0625 0.0078,0.132813 0.0078,0.0625 0.04687,0.125 -0.0625,0.04687 -0.08594,0.125 -0.01563,0.07031 -0.01563,0.140625 0,0.08594 0.01563,0.15625 0.01563,0.07031 0.03125,0.132812 0.25,-0.02344 0.453125,-0.09375 0.210938,-0.07031 0.390625,-0.171875 0.1875,-0.101562 0.359375,-0.234375 0.171875,-0.132812 0.359375,-0.28125 0.07813,-0.01563 0.125,-0.04687 0.05469,-0.03125 0.132813,-0.03125 0.03125,-0.109375 0.117187,-0.148437 0.08594,-0.04687 0.132813,-0.132813 0.09375,-0.02344 0.15625,-0.0625 0.07031,-0.04687 0.132812,-0.08594 0.0625,-0.04687 0.132813,-0.08594 0.07813,-0.03906 0.171875,-0.04687 0.132812,-0.15625 0.273437,-0.3125 0.148438,-0.15625 0.34375,-0.25 0.03125,-0.07813 0.07031,-0.132812 0.03906,-0.0625 0.07031,-0.117188 0.03906,-0.0625 0.0625,-0.125 0.02344,-0.07031 0.02344,-0.164062 z"
         id="text9"
         style="font-size:8px;font-family:'Rock Salt';-inkscape-font-specification:'Rock Salt, @opsz=32';font-variation-settings:'opsz' 32;white-space:pre;fill:#fff8d5"
         inkscape:label="B"
         transform="matrix(0.65960019,0,0,0.81384244,9.5182472,111.97499)"
         aria-label="b" />
      <path
         d="m 21.773437,67.976739 q 0,0.07813 -0.04687,0.132812 -0.03906,0.04687 -0.101562,0.08594 -0.05469,0.03906 -0.117188,0.07031 -0.05469,0.03125 -0.101562,0.07813 -0.03125,0.03125 -0.04687,0.07813 -0.0078,0.03906 -0.03906,0.05469 -0.04687,0.03906 -0.101562,0.04687 -0.05469,0.0078 -0.117188,0.02344 -0.05469,0.0078 -0.109375,0.03125 -0.05469,0.01563 -0.09375,0.07031 -0.367187,0.03906 -0.726562,0.101562 -0.351563,0.0625 -0.726563,0.0625 -0.07031,0 -0.15625,0.01563 -0.07813,0.0078 -0.148437,0.01563 -0.164063,0.01563 -0.328125,0.02344 -0.15625,0.0078 -0.320313,0.0078 -0.226562,0 -0.453125,-0.01563 -0.226562,-0.02344 -0.445312,-0.07031 -0.05469,-0.03906 -0.125,-0.0625 -0.07031,-0.02344 -0.148438,-0.04687 -0.07031,-0.02344 -0.132812,-0.05469 -0.0625,-0.03125 -0.09375,-0.09375 -0.117188,-0.0078 -0.210938,-0.04687 -0.08594,-0.03906 -0.164062,-0.08594 -0.07031,-0.05469 -0.148438,-0.109375 -0.07813,-0.05469 -0.179687,-0.09375 -0.07813,-0.109375 -0.164063,-0.210938 -0.07813,-0.109375 -0.195312,-0.179687 -0.02344,-0.148438 -0.07813,-0.296875 -0.04687,-0.148438 -0.101562,-0.289063 -0.04687,-0.148437 -0.07813,-0.296875 -0.03906,-0.148437 -0.03906,-0.304687 0,-0.109375 0.03125,-0.265625 0.03125,-0.15625 0.07813,-0.3125 0.05469,-0.164063 0.125,-0.304688 0.07031,-0.140625 0.140625,-0.226562 0.02344,-0.02344 0.05469,-0.03906 0.03125,-0.01563 0.05469,-0.04687 0.07031,-0.07813 0.148437,-0.125 0.07813,-0.05469 0.164063,-0.125 0.03125,-0.03125 0.04687,-0.07031 0.02344,-0.03906 0.0625,-0.07031 0.02344,-0.01563 0.0625,-0.0078 0.04687,0.0078 0.07813,-0.01563 0.03125,-0.02344 0.03125,-0.05469 0,-0.03125 0.02344,-0.05469 0.0078,-0.0078 0.04687,0 0.03906,0 0.04687,0 0.05469,0 0.125,-0.07031 0.07031,-0.07813 0.117188,-0.101562 0.05469,-0.03125 0.109375,-0.03906 0.05469,-0.01563 0.117187,-0.04687 0.08594,-0.04687 0.164063,-0.07031 0.08594,-0.03125 0.171875,-0.07031 0.04687,-0.01563 0.08594,-0.05469 0.03906,-0.03906 0.07813,-0.05469 0.07031,-0.02344 0.148438,-0.03125 0.08594,-0.01563 0.15625,-0.02344 0.07813,-0.01563 0.148437,-0.03125 0.07813,-0.02344 0.140625,-0.07813 h 0.0625 q 0.140625,0 0.273438,-0.03906 0.132812,-0.03906 0.273437,-0.03906 0.03906,0 0.117188,0.01563 0.0625,-0.03906 0.140625,-0.03906 0.132812,0 0.265625,0.07031 0.132812,0.0625 0.273437,0.0625 h 0.04687 q 0.03125,0 0.0625,-0.0078 0.08594,0.08594 0.203125,0.09375 0.125,0.0078 0.210938,0.07031 0.05469,0.04687 0.08594,0.109375 0.03906,0.0625 0.0625,0.132812 l 0.04687,0.140625 q 0.02344,0.07031 0.0625,0.125 -0.03906,0.28125 -0.234375,0.453125 -0.1875,0.164063 -0.476562,0.164063 -0.109375,0 -0.1875,-0.02344 -0.07031,-0.03125 -0.132813,-0.0625 -0.05469,-0.03125 -0.117187,-0.0625 -0.0625,-0.03125 -0.140625,-0.04687 0.08594,-0.15625 0.109375,-0.335937 -0.08594,-0.03906 -0.171875,-0.05469 -0.08594,-0.01563 -0.164063,-0.05469 -0.210937,0.05469 -0.414062,0.07813 -0.195313,0.01563 -0.367188,0.164062 -0.03906,-0.0078 -0.08594,-0.01563 -0.03906,-0.0078 -0.07813,-0.0078 -0.04687,0 -0.1875,0.07031 -0.140625,0.0625 -0.304688,0.148438 -0.15625,0.08594 -0.304687,0.171875 -0.140625,0.08594 -0.195313,0.117187 -0.0625,0.03906 -0.109375,0.09375 -0.04687,0.05469 -0.09375,0.117188 -0.04687,0.05469 -0.09375,0.109375 -0.04687,0.04687 -0.117187,0.07031 -0.01563,0.08594 -0.05469,0.148438 -0.03906,0.0625 -0.08594,0.132812 -0.0078,0.140625 -0.03125,0.28125 -0.01563,0.140625 -0.01563,0.28125 v 0.101563 q 0,0.04687 0.01563,0.08594 0.07813,0.101563 0.125,0.226563 0.05469,0.125 0.179687,0.171875 0.0078,0.03125 -0.0078,0.03906 -0.0078,0.0078 -0.01563,0.03906 0.04687,0.08594 0.117187,0.140625 0.07813,0.04687 0.15625,0.101562 0.07813,0.04687 0.148438,0.101563 0.07031,0.05469 0.109375,0.140625 0.117187,0 0.21875,0.03906 0.109375,0.03906 0.203125,0.08594 0.101562,0.04687 0.1875,0.08594 0.09375,0.03906 0.1875,0.03906 0.08594,0 0.15625,-0.02344 0.203125,0.0625 0.40625,0.09375 0.210937,0.02344 0.421875,0.02344 0.257812,0 0.515625,-0.03125 0.257812,-0.03125 0.515625,-0.05469 0.09375,-0.01563 0.179687,-0.01563 0.08594,0 0.171875,-0.01563 0.109375,-0.01563 0.203125,-0.101562 0.101563,-0.08594 0.195313,-0.125 0.08594,0.05469 0.203125,0.05469 0.132812,0 0.257812,-0.03906 0.125,-0.04687 0.257813,-0.04687 z"
         id="text10"
         style="font-size:8px;font-family:'Rock Salt';-inkscape-font-specification:'Rock Salt, @opsz=32';font-variation-settings:'opsz' 32;white-space:pre;fill:#fff8d5"
         inkscape:label="C"
         transform="matrix(0.80807423,0,0,0.95169985,6.2854569,149.35116)"
         aria-label="c&#10;" />
      <path
         d="m 21.164062,65.531426 q 0,0.07813 -0.05469,0.101563 -0.05469,0.02344 -0.05469,0.09375 0,0.02344 0.01563,0.03906 0.01563,0.01563 0.01563,0.04687 v 0.03125 q -0.09375,0.453125 -0.273437,0.789063 -0.171875,0.335937 -0.40625,0.617187 -0.234375,0.28125 -0.53125,0.53125 -0.289063,0.25 -0.625,0.523438 -0.09375,0.07813 -0.195313,0.15625 -0.09375,0.07813 -0.179687,0.164062 l -0.171875,0.164063 q -0.0078,0.0078 -0.08594,0.03906 -0.07813,0.02344 -0.09375,0.03125 -0.109375,0.04687 -0.234375,0.109375 -0.117187,0.0625 -0.203125,0.15625 -0.15625,0 -0.265625,0.04687 -0.109375,0.04687 -0.242187,0.125 -0.03906,0 -0.07031,-0.01563 -0.02344,-0.01563 -0.05469,-0.03125 -0.03125,-0.01563 -0.07031,-0.01563 -0.03125,-0.0078 -0.08594,0.0078 -0.09375,-0.15625 -0.203125,-0.265625 -0.109375,-0.109375 -0.296875,-0.132813 -0.02344,-0.132812 -0.109375,-0.203125 -0.08594,-0.07813 -0.171875,-0.164062 -0.01563,-0.04687 -0.02344,-0.109375 -0.0078,-0.0625 -0.03125,-0.117188 -0.02344,-0.05469 -0.0625,-0.09375 -0.03906,-0.03906 -0.109375,-0.03906 -0.0078,-0.04687 0.03906,-0.04687 0.04687,0 0.04687,-0.03906 0,-0.04687 -0.01563,-0.09375 -0.01563,-0.04687 -0.01563,-0.101562 0,-0.03906 0.0078,-0.07031 0.0078,-0.03125 0.02344,-0.07031 -0.02344,-0.210938 -0.02344,-0.429688 0,-0.421875 0.05469,-0.828125 0.0625,-0.414062 0.0625,-0.835937 0,-0.1875 -0.02344,-0.375 -0.01563,-0.1875 -0.07031,-0.367188 -0.179688,0.03906 -0.359375,0.09375 -0.179687,0.04687 -0.335937,0.132813 Q 15.59375,65.031426 15.5,65.023614 15.398438,65.007989 15.304688,64.976739 15.25,64.867364 15.25,64.750176 q 0,-0.109375 0.03906,-0.210937 l 0.07813,-0.203125 q 0.1875,-0.03906 0.375,-0.117188 0.179687,-0.07813 0.367187,-0.140625 0.0625,-0.01563 0.15625,-0.03906 0.101562,-0.02344 0.140625,-0.03906 0.05469,-0.02344 0.07031,-0.08594 0.02344,-0.07031 0.0625,-0.117188 h 0.132813 q 0.04687,0 0.101562,0.0078 0.05469,0 0.101563,0.02344 0.28125,-0.07031 0.5625,-0.08594 0.28125,-0.02344 0.578125,-0.0625 0.03125,0 0.09375,-0.0078 l 0.132812,-0.02344 q 0.07031,-0.01563 0.125,-0.02344 0.0625,-0.01563 0.08594,-0.01563 0.02344,0 0.02344,0.02344 h 0.132813 q 0.335937,0 0.65625,0.08594 l 0.640625,0.171875 q 0.132812,0.109375 0.265625,0.210938 0.132812,0.101562 0.296875,0.179687 0.03906,0.125 0.117187,0.203125 0.08594,0.07031 0.1875,0.15625 0.03906,0.101563 0.101563,0.21875 0.07031,0.109375 0.132812,0.226563 0.0625,0.117187 0.109375,0.234375 0.04687,0.109375 0.04687,0.210937 z M 20.4375,65.648614 q -0.08594,-0.179688 -0.164063,-0.375 -0.07813,-0.195313 -0.195312,-0.351563 -0.140625,-0.03906 -0.289063,-0.09375 -0.140625,-0.0625 -0.195312,-0.210937 -0.01563,0.0078 -0.05469,0.0078 -0.07031,0 -0.125,-0.05469 -0.05469,-0.05469 -0.125,-0.07031 -0.0625,-0.0078 -0.171875,-0.02344 -0.101562,-0.01563 -0.21875,-0.02344 -0.117187,-0.0078 -0.234375,-0.01563 -0.109375,-0.0078 -0.171875,-0.0078 -0.0625,0 -0.132812,0.0078 -0.0625,0 -0.132813,0.0078 -0.0625,0 -0.07813,0.02344 -0.01563,0.01563 -0.0625,0.03125 Q 18.046875,64.484551 18,64.484551 h -0.09375 q -0.164063,0 -0.328125,0.05469 -0.15625,0.04687 -0.3125,0.132812 v 0.03125 q 0,0.0625 0.05469,0.07031 0.05469,0.0078 0.0625,0.0625 -0.03906,0 -0.0625,0.0078 -0.02344,0 -0.02344,0.05469 0,0.07813 0.01563,0.171875 0.02344,0.09375 0.02344,0.1875 0,0.07031 -0.01563,0.164062 -0.01563,0.09375 -0.07813,0.148438 0.07813,0.07031 0.07813,0.1875 0,0.07813 -0.03125,0.164062 -0.03125,0.08594 -0.07813,0.148438 -0.01563,0.328125 -0.0625,0.664062 -0.04687,0.335938 -0.04687,0.664063 0,0.164062 0.01563,0.320312 0.02344,0.15625 0.07031,0.3125 0.08594,0.08594 0.179687,0.132813 0.101563,0.04687 0.210938,0.09375 v 0.02344 q 0,0.02344 -0.03125,0.04687 -0.03125,0.02344 -0.03125,0.0625 0,0.03125 0.03125,0.03125 0.328125,-0.09375 0.617187,-0.226562 0.289063,-0.132813 0.539063,-0.359375 0.02344,-0.02344 0.04687,-0.02344 0.01563,0 0.03906,0.0078 0.03125,0.0078 0.05469,0.01563 l -0.0078,-0.03125 q 0,-0.04687 0.02344,-0.08594 0.03125,-0.03906 0.07031,-0.07031 l 0.07813,-0.07031 q 0.03906,-0.03906 0.0625,-0.07813 0.0625,-0.01563 0.08594,-0.0625 0.03125,-0.04687 0.101562,-0.04687 0.01563,-0.08594 0.08594,-0.125 0.07031,-0.04687 0.08594,-0.132812 0.15625,-0.08594 0.273438,-0.210938 0.125,-0.125 0.226562,-0.265625 0.109375,-0.140625 0.203125,-0.289062 0.09375,-0.15625 0.195313,-0.296875 v -0.03125 q 0,-0.125 0.03906,-0.203125 0.04687,-0.07813 0.07031,-0.1875 z"
         id="text11"
         style="font-size:8px;font-family:'Rock Salt';-inkscape-font-specification:'Rock Salt, @opsz=32';font-variation-settings:'opsz' 32;white-space:pre;fill:#fff8d5"
         inkscape:label="D"
         transform="matrix(0.79269211,0,0,0.86670365,6.9114452,197.65782)"
         aria-label="d&#10;" />
      <path
         d="m 20.859375,64.414239 v 0.03125 q -0.05469,0.01563 -0.05469,0.07813 -0.08594,0.03906 -0.179687,0.0625 -0.09375,0.01563 -0.179688,0.05469 -0.08594,-0.0078 -0.179687,-0.0078 -0.08594,-0.0078 -0.171875,-0.0078 -0.234375,0 -0.46875,0.01563 -0.234375,0.01563 -0.46875,0 -0.109375,0.0625 -0.242188,0.101563 -0.125,0.03125 -0.242187,0.03125 -0.09375,0 -0.164063,-0.02344 -0.1875,0.09375 -0.414062,0.15625 -0.21875,0.0625 -0.445313,0.125 -0.226562,0.05469 -0.4375,0.132813 -0.203125,0.07031 -0.359375,0.203125 -0.01563,0.109375 -0.02344,0.21875 -0.0078,0.101562 -0.0078,0.203125 0,0.109375 0.0078,0.203125 0.01563,0.09375 0.05469,0.1875 0.03906,0.01563 0.08594,0.02344 0.05469,0.0078 0.09375,0.0078 0.03906,0 0.07813,-0.0078 0.03906,-0.01563 0.05469,-0.05469 0.117188,-0.01563 0.234375,-0.0078 0.117188,0 0.234375,0 0.117188,0 0.226563,-0.0078 0.117187,-0.0078 0.226562,-0.03906 0.125,-0.03125 0.242188,-0.03906 0.125,-0.0078 0.242187,-0.01563 0.117188,-0.0078 0.242188,-0.02344 0.125,-0.02344 0.257812,-0.08594 0.101563,0.03906 0.203125,0.03906 0.109375,0 0.210938,0.01563 0.05469,0.03906 0.08594,0.08594 0.03906,0.04687 0.03906,0.109375 0,0.109375 -0.07813,0.21875 -0.07813,0.109375 -0.125,0.203125 h -0.08594 q -0.1875,0 -0.367187,0.05469 -0.171875,0.04687 -0.351563,0.117188 -0.171875,0.0625 -0.351562,0.117187 -0.171875,0.04687 -0.359375,0.04687 -0.03125,0 -0.03906,0.03906 0,0.03125 -0.01563,0.04687 -0.03906,-0.0078 -0.117187,-0.0078 -0.179688,0 -0.34375,0.03906 -0.164063,0.03906 -0.335938,0.03906 -0.04687,0 -0.09375,0 -0.04687,-0.0078 -0.09375,-0.01563 -0.03906,0.0625 -0.101562,0.08594 -0.0625,0.01563 -0.117188,0.0625 -0.02344,0.07031 -0.03125,0.171875 0,0.101562 -0.0078,0.210937 0,0.101563 -0.01563,0.195313 -0.01563,0.09375 -0.0625,0.148437 0.0078,0.03906 0.0625,0.03125 0.05469,-0.01563 0.05469,0.04687 0,0.07031 -0.01563,0.148438 -0.01563,0.07813 -0.01563,0.15625 0,0.148437 0.03125,0.328125 0.03906,0.171875 0.109375,0.320312 0.07813,0.148438 0.203125,0.25 0.125,0.09375 0.3125,0.09375 0.125,0 0.234375,-0.04687 0.109375,-0.04687 0.179688,-0.15625 l 0.03906,-0.0078 q 0.03125,0 0.05469,0.0078 0.03125,0.0078 0.0625,0.0078 0.04687,0 0.117187,-0.05469 0.07813,-0.0625 0.164063,-0.140625 0.09375,-0.07813 0.1875,-0.148437 0.09375,-0.07813 0.179687,-0.109375 0.05469,-0.109375 0.101563,-0.21875 0.05469,-0.109375 0.15625,-0.171875 v -0.226563 q 0.07813,-0.08594 0.164062,-0.15625 0.09375,-0.07031 0.140625,-0.179687 0.03906,0.01563 0.07031,0.02344 0.03906,0.0078 0.07813,0.0078 0.03906,0 0.07813,-0.0078 0.04687,-0.0078 0.08594,-0.02344 0.0625,0.08594 0.09375,0.195312 0.03906,0.101563 0.09375,0.195313 -0.07031,0.140625 -0.164062,0.335937 -0.09375,0.195313 -0.203125,0.390625 -0.109375,0.195313 -0.234375,0.375 -0.117188,0.171875 -0.234375,0.265625 -0.02344,0.02344 -0.101563,0.05469 -0.08594,0.0625 -0.15625,0.117187 -0.07031,0.0625 -0.132812,0.140625 -0.226563,0.07031 -0.4375,0.1875 -0.203125,0.117188 -0.40625,0.226563 -0.09375,-0.02344 -0.203125,-0.02344 -0.09375,0 -0.1875,0.0078 -0.09375,0.01563 -0.203125,0.01563 -0.03125,-0.03906 -0.09375,-0.05469 -0.05469,-0.0078 -0.03906,-0.07813 -0.265625,-0.01563 -0.429687,-0.148437 -0.164063,-0.125 -0.28125,-0.3125 -0.109375,-0.1875 -0.179687,-0.40625 -0.07031,-0.21875 -0.148438,-0.421875 v -0.02344 q 0,-0.03906 0.03125,-0.04687 0.03125,-0.0078 0.03125,-0.04687 0,-0.01563 -0.0078,-0.02344 -0.02344,-0.08594 -0.03906,-0.148438 -0.01563,-0.0625 -0.01563,-0.148437 0,-0.125 0.01563,-0.242188 0.01563,-0.125 0.01563,-0.25 0,-0.125 -0.03125,-0.21875 0.03125,-0.03906 0.05469,-0.101562 0.01563,-0.07031 0.02344,-0.140625 0.0078,-0.07031 0.0078,-0.140625 0.0078,-0.07031 0.02344,-0.125 -0.03125,-0.08594 -0.05469,-0.148438 -0.02344,-0.07031 -0.02344,-0.164062 v -0.05469 q 0.07813,-0.132812 0.132813,-0.273437 0.05469,-0.140625 0.117187,-0.289063 v -0.02344 q 0,-0.226563 -0.01563,-0.453125 -0.01563,-0.226563 -0.01563,-0.453125 v -0.148438 q 0,-0.07813 0.0078,-0.148437 0.0625,-0.03125 0.09375,-0.08594 0.03125,-0.05469 0.09375,-0.08594 H 16.4375 l 0.04687,-0.07813 q 0.02344,-0.03906 0.03125,-0.08594 0.08594,-0.02344 0.164062,-0.0625 0.08594,-0.04687 0.15625,-0.09375 0.109375,-0.0625 0.195313,-0.109375 0.09375,-0.05469 0.179687,-0.08594 0.09375,-0.03906 0.195313,-0.0625 0.101562,-0.02344 0.234375,-0.03906 0.0625,0 0.07813,-0.02344 0.02344,-0.02344 0.0625,-0.05469 0.09375,0.01563 0.1875,0.03125 0.09375,0.0078 0.1875,0.0078 0.1875,0 0.351562,-0.07031 0.234375,0 0.460938,-0.0078 0.234375,-0.0078 0.46875,-0.0078 0.203125,0 0.40625,0.01563 0.203125,0.01563 0.398437,0.05469 0.07031,-0.02344 0.15625,-0.02344 0.09375,0 0.1875,0.02344 0.101563,0.01563 0.195313,0 0.0078,0.08594 0.03906,0.148437 0.03906,0.05469 0.03906,0.132813 z"
         id="text12"
         style="font-size:8px;font-family:'Rock Salt';-inkscape-font-specification:'Rock Salt, @opsz=32';font-variation-settings:'opsz' 32;white-space:pre;fill:#fff8d5"
         inkscape:label="E"
         transform="matrix(0.95219723,0,0,0.81384244,4.0177716,248.90551)"
         aria-label="e&#10;" />
    </g>
    <path
       d="m 30.791016,300.27361 q -0.04687,0.0703 -0.05469,0.15625 -0.0078,0.0859 -0.0078,0.15625 0,0.0937 0,0.1875 0.0078,0.0859 0.0078,0.17188 v 0.11719 q -0.01563,0.0547 -0.04687,0.10937 -0.03125,0.0547 -0.04687,0.10938 -0.109375,0.28906 -0.109375,0.57812 v 0.0156 q -0.03906,0.0937 -0.07813,0.17187 -0.03125,0.0781 -0.0625,0.15625 -0.03125,0.0703 -0.04687,0.15625 -0.01563,0.0781 -0.0078,0.1875 -0.109375,0.27344 -0.289063,0.5 -0.179687,0.21875 -0.351562,0.45313 -0.164063,0.0625 -0.304688,0.16406 -0.132812,0.10156 -0.257812,0.22656 -0.242188,0.0781 -0.476563,0.17969 -0.234375,0.10156 -0.421875,0.27344 -0.148437,0.0156 -0.296875,0.0469 -0.148437,0.0312 -0.289062,0.0937 h -0.09375 q -0.07031,0 -0.101563,-0.0312 -0.101562,0.0547 -0.210937,0.0781 -0.109375,0.0156 -0.21875,0.0156 -0.140625,0 -0.28125,-0.0156 -0.132813,-0.0234 -0.273438,-0.0469 -0.07813,-0.10937 -0.21875,-0.16406 -0.140625,-0.0625 -0.25,-0.11719 -0.226562,-0.3125 -0.328125,-0.60156 -0.101562,-0.29688 -0.210937,-0.66406 0.01563,-0.10938 0.05469,-0.21094 0.03906,-0.10938 0.03125,-0.23438 0.140625,-0.40625 0.367188,-0.73437 0.234375,-0.33594 0.53125,-0.64063 0,-0.0469 0.01563,-0.0781 0.02344,-0.0312 0.0078,-0.0937 0.0078,0.008 0.03125,0.008 0.0625,0 0.07813,-0.0312 0.01563,-0.0391 0.0078,-0.0859 0.28125,-0.17968 0.507812,-0.41406 0.234375,-0.23437 0.53125,-0.39062 0.02344,-0.0703 0.07813,-0.11719 0.05469,-0.0469 0.08594,-0.10938 0.25,-0.0703 0.453125,-0.21093 0.203125,-0.14063 0.429687,-0.25 0.125,-0.0703 0.234375,-0.0937 0.117188,-0.0312 0.25,-0.0625 0.04687,-0.0156 0.08594,-0.0234 0.03906,-0.008 0.08594,-0.008 0.140625,0 0.273438,0.0547 0.132812,0.0469 0.273437,0.0469 0.03906,0 0.0625,0 0.03125,-0.008 0.0625,-0.0156 0.132813,0.16407 0.335938,0.25 0.04687,0.11719 0.109375,0.20313 0.07031,0.0859 0.140625,0.17187 0.07031,0.0781 0.125,0.17969 0.0625,0.0937 0.07813,0.22656 z m -0.78125,0.40625 q 0,-0.0391 -0.0078,-0.0703 -0.07813,-0.0234 -0.148437,-0.0625 -0.07031,-0.0391 -0.15625,-0.0391 -0.05469,0 -0.109375,0.0234 -0.0078,-0.0547 -0.04687,-0.0781 -0.03125,-0.0234 -0.07813,-0.0391 -0.03906,-0.0234 -0.08594,-0.0312 -0.03906,-0.0156 -0.07031,-0.0469 -0.02344,-0.0625 -0.05469,-0.125 -0.02344,-0.0703 -0.09375,-0.10156 -0.07031,0.0703 -0.164062,0.11719 -0.09375,0.0391 -0.195313,0.0781 -0.09375,0.0391 -0.1875,0.0937 -0.08594,0.0547 -0.148437,0.13282 h -0.140625 q -0.04687,0.0859 -0.132813,0.13281 -0.08594,0.0391 -0.148437,0.11719 -0.125,0.0625 -0.234375,0.15625 -0.101563,0.0859 -0.203125,0.1875 -0.101563,0.0937 -0.203125,0.19531 -0.09375,0.10156 -0.203125,0.1875 -0.101563,0.21875 -0.226563,0.38281 -0.117187,0.15625 -0.226562,0.32031 -0.101563,0.16407 -0.179688,0.35938 -0.07031,0.1875 -0.07031,0.46875 v 0.0781 q 0,0.0391 0.0078,0.0781 0.101563,0.10937 0.164063,0.23437 0.07031,0.125 0.226562,0.17969 0.15625,0.0625 0.328125,0.0547 0.179688,-0.008 0.34375,0.0391 0.375,-0.0703 0.71875,-0.22656 0.351563,-0.16406 0.664063,-0.39063 0.04687,-0.0391 0.109375,-0.0781 0.0625,-0.0469 0.101562,-0.0937 0.03906,-0.0391 0.0625,-0.0859 0.03125,-0.0469 0.0625,-0.0859 0.0625,-0.10156 0.140625,-0.20312 0.07813,-0.10156 0.164063,-0.1875 0.03906,-0.17188 0.101562,-0.32813 0.0625,-0.16406 0.125,-0.32031 0.0625,-0.15625 0.101563,-0.32031 0.04687,-0.16406 0.04687,-0.34375 0,-0.0391 -0.0078,-0.0859 0,-0.0469 -0.0078,-0.0859 0.0625,-0.0859 0.0625,-0.1875 z m 6.1875,2.85157 q -0.03125,0.11718 -0.101563,0.19531 -0.07031,0.0781 -0.164062,0.14062 -0.08594,0.0625 -0.1875,0.11719 -0.101563,0.0469 -0.195313,0.10938 h -0.101562 q -0.328125,0 -0.507813,-0.15625 -0.171875,-0.16407 -0.265625,-0.39844 -0.09375,-0.24219 -0.140625,-0.51563 -0.03906,-0.27343 -0.101562,-0.5 -0.09375,0.0781 -0.15625,0.1875 -0.0625,0.10157 -0.132813,0.20313 -0.0625,0.10156 -0.148437,0.1875 -0.07813,0.0859 -0.210938,0.11719 -0.02344,0.0547 -0.05469,0.10937 -0.02344,0.0547 -0.03125,0.11719 -0.171875,0.0937 -0.3125,0.21875 -0.140625,0.125 -0.28125,0.25781 -0.140625,0.13281 -0.289063,0.25781 -0.140625,0.11719 -0.320312,0.19532 -0.0078,-0.008 -0.03125,-0.008 -0.09375,0 -0.171875,0.0469 -0.07813,0.0391 -0.171875,0.0391 -0.0625,0 -0.117188,-0.0234 -0.04687,-0.0234 -0.101562,-0.0547 -0.04687,-0.0312 -0.101563,-0.0469 -0.05469,-0.0156 -0.117187,-0.008 -0.07813,-0.14063 -0.210938,-0.25781 -0.125,-0.125 -0.15625,-0.28125 -0.01563,-0.0703 -0.02344,-0.14063 0,-0.0781 -0.01563,-0.15625 -0.02344,-0.11719 -0.0625,-0.23437 -0.03906,-0.125 -0.0625,-0.25 0.03906,-0.21094 0.07813,-0.46094 0.03125,-0.25781 0.07813,-0.50781 0.05469,-0.25782 0.140625,-0.48438 0.09375,-0.23437 0.234375,-0.39844 l -0.0078,-0.0547 q 0,-0.125 0.04687,-0.23438 0.04687,-0.10937 0.101563,-0.21094 0.05469,-0.10156 0.09375,-0.20312 0.03906,-0.10156 0.01563,-0.22656 0.09375,-0.0469 0.195312,-0.0781 0.101563,-0.0312 0.210938,-0.0312 0.101562,0 0.1875,0.0312 -0.01563,0.0625 0.05469,0.0781 v 0.0234 q 0,0.16407 -0.03906,0.32032 -0.03906,0.15625 -0.09375,0.3125 -0.05469,0.14843 -0.109375,0.30468 -0.04687,0.14844 -0.07031,0.30469 -0.03125,0.008 -0.04687,0.0312 -0.0078,0.0234 -0.01563,0.0469 -0.0078,0.0234 -0.02344,0.0391 -0.01563,0.0156 -0.04687,0.0156 -0.04687,0.27344 -0.101563,0.54688 -0.04687,0.26562 -0.04687,0.53906 0,0.16406 0.03125,0.33594 0.03125,0.17187 0.117188,0.32812 l 0.03125,-0.008 q 0.08594,0 0.132812,0.0391 0.05469,0.0391 0.140625,0.0781 0.0625,-0.0156 0.117188,-0.0391 0.05469,-0.0312 0.04687,-0.10157 0.101562,-0.008 0.171875,-0.0469 0.07031,-0.0469 0.125,-0.10156 l 0.117187,-0.10938 q 0.0625,-0.0547 0.148438,-0.0781 0,-0.0469 0.02344,-0.0703 l 0.04687,-0.0469 q 0.02344,-0.0234 0.03125,-0.0469 0.01563,-0.0312 0.0078,-0.0859 0.09375,-0.008 0.140625,-0.0469 0.05469,-0.0391 0.09375,-0.0859 0.04687,-0.0547 0.08594,-0.10937 0.03906,-0.0547 0.101563,-0.0937 0.05469,-0.11719 0.148437,-0.3125 0.101563,-0.19531 0.195313,-0.40625 0.101562,-0.21094 0.171875,-0.39844 0.07813,-0.19531 0.07813,-0.29687 0,-0.0391 -0.02344,-0.0703 -0.01563,-0.0312 -0.0078,-0.0703 v -0.0234 q 0.0625,-0.0781 0.109375,-0.17187 0.05469,-0.0937 0.109375,-0.17969 0.0625,-0.0859 0.132812,-0.15625 0.07031,-0.0703 0.179688,-0.10937 0.125,0.0391 0.25,0.0547 0.132812,0.0156 0.25,0.0625 0.0078,0.19532 0.03906,0.45313 0.03125,0.25781 0.109375,0.4375 0,0.10156 -0.0078,0.19531 0,0.0937 0,0.1875 0,0.15625 0.0078,0.32031 0.01563,0.16407 0.05469,0.30469 -0.05469,0.11719 -0.05469,0.25 0,0.17969 0.05469,0.34375 0.05469,0.15625 0.07813,0.33594 0.101562,0.14062 0.265625,0.14062 0.03906,0 0.0625,-0.008 0.03125,-0.008 0.0625,-0.0234 0.0625,0.0703 0.109375,0.14063 0.05469,0.0625 0.125,0.11719 z m 6.984375,-3.75782 q -0.03125,0.10157 -0.101563,0.1875 l -0.132812,0.16407 q -0.0625,0.0781 -0.109375,0.17187 -0.03906,0.0859 -0.02344,0.20313 -0.01563,0 -0.03906,0 -0.02344,-0.008 -0.03906,-0.008 -0.125,0 -0.195312,0.0625 -0.0625,0.0547 -0.171875,0.0937 -0.01563,-0.0469 -0.03906,-0.0859 -0.02344,-0.0469 -0.07031,-0.0625 -0.1875,0.0391 -0.375,0.0625 -0.1875,0.0156 -0.375,0.0469 -0.08594,0.0156 -0.171875,0.0469 -0.08594,0.0234 -0.179688,0.0469 -0.04687,0.0156 -0.101562,0.0156 -0.05469,-0.008 -0.109375,0 -0.1875,0.008 -0.40625,0.0312 -0.21875,0.0156 -0.390625,0.11718 -0.07813,-0.0156 -0.164063,-0.0234 -0.08594,-0.008 -0.171875,-0.008 -0.1875,0 -0.414062,0.0391 -0.21875,0.0312 -0.390625,0.13281 -0.03906,-0.0156 -0.08594,-0.0234 -0.03906,-0.008 -0.09375,-0.008 -0.01563,0 -0.02344,0.008 -0.0078,0 -0.02344,0 -0.0078,0.0703 0.01563,0.14063 0.03125,0.0625 0.101563,0.10156 -0.03125,0.0859 -0.03125,0.1875 0,0.13281 0.01563,0.26562 0.02344,0.13282 0.02344,0.26563 0,0.14844 -0.03906,0.23437 0.07813,0.23438 0.07813,0.5 0,0.0937 -0.01563,0.1875 -0.0078,0.0859 -0.0078,0.1875 0,0.0859 0.0625,0.14063 0.0625,0.0469 0.0625,0.13281 0,0.0312 -0.01563,0.0625 0.109375,-0.0234 0.210938,-0.0625 0.101562,-0.0469 0.210937,-0.0469 0.0625,0 0.117188,0.0234 0.0625,0.0234 0.109375,0.0625 -0.0078,0.0391 -0.01563,0.0859 0,0.0469 0,0.0937 0,0.0859 0,0.16406 0.0078,0.0703 0.01563,0.15625 -0.0625,0.10938 -0.148438,0.19532 -0.07813,0.0859 -0.109375,0.21875 -0.117187,0 -0.210937,0.0547 -0.08594,0.0469 -0.164063,0.10938 -0.07813,0.0547 -0.15625,0.10937 -0.07813,0.0469 -0.171875,0.0469 -0.117187,0 -0.164062,-0.0312 -0.04687,-0.0391 -0.07031,-0.0781 -0.02344,-0.0391 -0.04687,-0.0703 -0.01563,-0.0312 -0.07813,-0.0234 -0.01563,-0.10156 -0.0625,-0.1875 -0.04687,-0.0937 -0.101562,-0.17968 -0.04687,-0.0859 -0.101563,-0.17188 -0.04687,-0.0937 -0.07031,-0.1875 -0.04687,-0.20312 -0.03906,-0.42187 0.0078,-0.21875 -0.07031,-0.42188 0.01563,-0.10937 0.02344,-0.21875 0.0078,-0.11719 0.0078,-0.22656 0,-0.21875 -0.01563,-0.42969 -0.0078,-0.21875 -0.01563,-0.44531 -0.05469,-0.0703 -0.07031,-0.15625 -0.0078,-0.0937 -0.01563,-0.17969 -0.02344,-0.0234 -0.05469,-0.0469 -0.02344,-0.0234 -0.03125,-0.0625 -0.0625,-0.0156 -0.09375,-0.0156 -0.109375,0 -0.1875,0.0547 -0.07031,0.0469 -0.132813,0.0469 -0.0625,0 -0.117187,-0.0156 -0.05469,-0.0156 -0.109375,-0.0156 -0.04687,0 -0.05469,0.0234 0,0.0156 -0.03125,0.0312 -0.02344,0.0156 -0.109375,0.0312 -0.08594,0.0156 -0.195312,0.0312 -0.101563,0.008 -0.203125,0.0156 -0.09375,0.008 -0.125,0.008 -0.125,0 -0.1875,-0.0469 -0.07031,-0.0547 -0.164063,-0.11718 0.01563,-0.0469 0.01563,-0.0625 0,-0.0781 -0.04687,-0.125 -0.04687,-0.0547 -0.04687,-0.0937 0,-0.0859 0.07031,-0.13282 0.0625,-0.0469 0.07031,-0.14843 0.179688,-0.0781 0.367188,-0.11719 0.1875,-0.0391 0.382812,-0.0625 0.195313,-0.0234 0.382813,-0.0547 0.195312,-0.0312 0.382812,-0.10156 0.05469,0.008 0.101563,0.0156 0.05469,0 0.109375,0 0.234375,0 0.460937,-0.0469 0.234375,-0.0547 0.476563,-0.0547 0.0625,0 0.125,0.008 0.0625,0.008 0.125,0.0234 0.3125,-0.0469 0.617187,-0.10156 0.3125,-0.0547 0.640625,-0.0937 0.15625,-0.0156 0.304688,-0.0234 0.15625,-0.0156 0.3125,-0.0391 0.05469,-0.008 0.07813,-0.0234 0.03125,-0.0234 0.03125,-0.0859 0.07031,0.0312 0.15625,0.0312 0.132812,0 0.257812,-0.0469 0.125,-0.0469 0.257813,-0.0469 0.03125,0 0.05469,0.008 0.02344,0 0.04687,0 0.05469,0 0.05469,-0.0469 0.0078,-0.0547 0.07813,-0.0703 0.05469,-0.0156 0.15625,-0.0234 0.101562,-0.008 0.210937,-0.0156 0.117188,-0.0156 0.210938,-0.0312 0.101562,-0.0234 0.148437,-0.0625 l 0.05469,-0.0859 q 0.140625,0.008 0.203125,0.125 0.07031,0.10937 0.07813,0.24219 0.03125,0.0312 0.08594,0.0312 0.0625,-0.008 0.109375,-0.008 z"
       id="text2"
       style="font-size:8px;font-family:'Rock Salt';-inkscape-font-specification:'Rock Salt, @opsz=32';font-variation-settings:'opsz' 32;white-space:pre;fill:#fff8d5"
       inkscape:label="Out"
       transform="matrix(0.90299824,0,0,1.1018651,5.796677,-28.8472)"
       aria-label="out" />
    <path
       d="m 29.164062,64.961114 q 0,0.125 -0.08594,0.226562 -0.08594,0.101563 -0.148438,0.195313 -0.109375,0.05469 -0.210937,0.0625 -0.09375,0.01563 -0.203125,0.05469 -0.03906,0.0078 -0.08594,0.05469 -0.0625,-0.0078 -0.125,-0.05469 -0.0625,-0.03906 -0.125,-0.05469 -0.08594,-0.03125 -0.226562,-0.03906 -0.132813,-0.0078 -0.195313,-0.07813 -0.109375,-0.109375 -0.1875,-0.289062 Q 27.5,64.859551 27.453125,64.656426 27.414062,64.453301 27.390625,64.257989 27.375,64.054864 27.375,63.906426 q 0,-0.25 0.03125,-0.5 0.03125,-0.25 0.09375,-0.484375 v -0.03906 q 0,-0.03906 0,-0.0625 0.0078,-0.03125 0.0078,-0.07031 0,-0.02344 -0.0078,-0.04687 0,-0.02344 -0.02344,-0.03906 0.101563,-0.257813 0.148438,-0.53125 0.04687,-0.273438 0.07031,-0.546875 0.03125,-0.28125 0.0625,-0.554688 0.03906,-0.28125 0.109375,-0.546875 -0.0078,-0.04687 -0.01563,-0.101562 0,-0.05469 0,-0.101563 0,-0.140625 0.03125,-0.273437 0.03125,-0.140625 0.03906,-0.289063 0.0078,-0.04687 0,-0.09375 -0.0078,-0.05469 -0.0078,-0.109375 0,-0.34375 0.03125,-0.671875 0.03906,-0.328125 0.03906,-0.664062 0,-0.179688 -0.03125,-0.34375 -0.02344,-0.171875 -0.02344,-0.34375 0,-0.07813 0.0078,-0.148438 0.0078,-0.07813 0.04687,-0.140625 0.171875,-0.117187 0.40625,-0.117187 0.171875,0 0.296875,0.09375 -0.0078,0.01563 -0.0078,0.04687 0,0.03906 0.0078,0.07031 0.0078,0.03125 0.0078,0.07031 v 0.03125 q 0,0.01563 -0.0078,0.03125 0.05469,0.09375 0.07031,0.203125 0.02344,0.101562 0.02344,0.210937 0,0.101563 -0.0078,0.203125 -0.0078,0.09375 -0.0078,0.195313 0,0.140625 0,0.28125 0.0078,0.140625 0.0078,0.28125 0,0.375 -0.03906,0.742187 -0.03125,0.359375 -0.04687,0.734375 -0.01563,0.320313 -0.08594,0.625 -0.0625,0.304688 -0.08594,0.617188 -0.0078,0.0625 -0.0078,0.125 0.0078,0.05469 0.0078,0.125 0,0.179687 -0.07031,0.359375 -0.07031,0.171875 -0.07031,0.367187 0,0.09375 0.03125,0.164063 -0.04687,0.125 -0.08594,0.296875 -0.03125,0.171875 -0.0625,0.359375 -0.02344,0.179687 -0.03906,0.359375 -0.01563,0.171875 -0.01563,0.304687 0,0.1875 0.04687,0.382813 0.04687,0.1875 0.15625,0.34375 0.07813,0.02344 0.1875,0.02344 0.109375,0 0.21875,0.0078 0.109375,0.0078 0.203125,0.03906 0.09375,0.03125 0.140625,0.125 0.0078,0.01563 0.0078,0.03125 z m 5.882813,-5.523438 Q 35.03125,59.531426 35,59.601739 q -0.02344,0.0625 -0.0078,0.171875 -0.07813,0.0078 -0.125,0.05469 -0.03906,0.03906 -0.07031,0.09375 -0.02344,0.05469 -0.05469,0.117188 -0.02344,0.05469 -0.0625,0.101562 0.0625,0.28125 0.07031,0.570313 0.0078,0.289062 0.03906,0.570312 0.03906,0.359375 0.117188,0.710938 0.08594,0.34375 0.08594,0.703125 0,0.109375 -0.0078,0.203125 0,0.09375 0,0.195312 0,0.0625 0,0.132813 0.0078,0.0625 0.0078,0.125 0,0.226562 -0.0625,0.453125 -0.05469,0.226562 -0.08594,0.453125 -0.09375,0.08594 -0.164063,0.1875 -0.0625,0.101562 -0.132812,0.1875 -0.07031,0.08594 -0.164063,0.148437 -0.09375,0.07031 -0.234375,0.09375 -0.02344,0.07813 -0.09375,0.117188 -0.0625,0.03906 -0.109375,0.109375 h -0.01563 q -0.195312,0 -0.335937,-0.05469 -0.140625,-0.05469 -0.265625,-0.125 -0.117188,-0.07031 -0.242188,-0.148437 -0.125,-0.07813 -0.289062,-0.125 -0.21875,-0.179688 -0.398438,-0.390625 -0.179687,-0.21875 -0.40625,-0.390625 -0.05469,-0.15625 -0.148437,-0.257813 -0.08594,-0.101562 -0.171875,-0.234375 -0.03906,-0.05469 -0.0625,-0.101562 -0.01563,-0.04687 -0.04687,-0.109375 -0.02344,-0.0625 -0.07813,-0.08594 -0.04687,-0.02344 -0.08594,-0.05469 -0.0625,-0.242188 -0.179687,-0.445313 -0.117188,-0.203125 -0.273438,-0.390625 -0.04687,0.08594 -0.07813,0.1875 -0.02344,0.09375 -0.04687,0.195313 -0.02344,0.09375 -0.0625,0.195312 -0.03125,0.09375 -0.08594,0.171875 v 0.02344 q 0,0.03906 0.03125,0.04687 0.03125,0.0078 0.03125,0.04687 0,0.0078 -0.0078,0.01563 0,0.0078 0,0.01563 -0.03906,0.03125 -0.0625,0.07813 -0.01563,0.04687 -0.07813,0.05469 0.0078,0.03906 0.0078,0.07813 v 0.07031 q 0,0.226562 -0.05469,0.453125 -0.04687,0.226562 -0.04687,0.460937 v 0.101563 q 0,0.05469 0.0078,0.101562 0.01563,0.04687 0.04687,0.09375 0.03125,0.04687 0.03125,0.08594 0,0.05469 -0.04687,0.101562 0.05469,0.03906 0.125,0.08594 0.07031,0.04687 0.125,0.101562 0.0625,0.0625 0.101562,0.125 0.03906,0.07031 0.03906,0.148438 0,0.132812 -0.08594,0.1875 -0.08594,0.05469 -0.210937,0.08594 -0.117188,0.03125 -0.25,0.05469 -0.125,0.03125 -0.210938,0.101562 h -0.02344 q -0.09375,0 -0.140625,-0.05469 -0.04687,-0.05469 -0.140625,-0.05469 -0.148438,-0.242187 -0.203125,-0.546875 -0.05469,-0.296875 -0.05469,-0.570312 0,-0.335938 0.0625,-0.671875 0.05469,-0.335938 0.140625,-0.664063 0.07813,-0.328125 0.171875,-0.648437 0.101563,-0.328125 0.1875,-0.65625 l 0.0078,-0.02344 q 0,-0.03906 -0.02344,-0.05469 -0.01563,-0.01563 -0.01563,-0.04687 0,-0.01563 0.0078,-0.01563 0.02344,-0.07813 0.04687,-0.148438 0.03125,-0.07031 0.04687,-0.15625 0.04687,-0.21875 0.0625,-0.445312 0.02344,-0.234375 0.02344,-0.460938 0.0078,-0.226562 0.01563,-0.453125 0.01563,-0.234375 0.05469,-0.460937 0.0625,-0.0625 0.117187,-0.132813 0.05469,-0.07031 0.140625,-0.125 0.15625,0.0078 0.3125,0.04687 0.15625,0.03906 0.296875,0.125 0.09375,0.335938 0.125,0.671875 0.03906,0.335938 0.125,0.671875 v 0.02344 q 0,0.03906 0.03906,0.03906 0.04687,-0.0078 0.07031,0.02344 -0.01563,0.02344 -0.02344,0.05469 0,0.03125 0,0.0625 v 0.132813 q 0.01563,0.0625 0.03906,0.132812 0.02344,0.07031 0.101563,0.08594 0.03906,0.25 0.117187,0.460937 0.07813,0.210938 0.179688,0.40625 0.101562,0.195313 0.21875,0.390625 0.117187,0.1875 0.242187,0.398438 0.195313,0.148437 0.335938,0.34375 0.140625,0.1875 0.28125,0.367187 0.148437,0.171875 0.328125,0.304688 0.1875,0.132812 0.484375,0.164062 0.03906,-0.03125 0.05469,-0.08594 l 0.03906,-0.109375 q 0.02344,-0.05469 0.04687,-0.09375 0.03125,-0.04687 0.08594,-0.07031 0.01563,-0.21875 0.03125,-0.445312 0.02344,-0.226563 0.101563,-0.429688 -0.03906,-0.07031 -0.03906,-0.171875 0,-0.07813 0.0078,-0.148437 0.01563,-0.07031 0.01563,-0.140625 0,-0.148438 -0.0625,-0.242188 0,-0.05469 0.0078,-0.109375 0.0078,-0.0625 0.04687,-0.117187 -0.0625,-0.15625 -0.101562,-0.328125 -0.03125,-0.171875 -0.03125,-0.351563 0,-0.101562 0.02344,-0.210937 -0.04687,-0.117188 -0.0625,-0.273438 l -0.03125,-0.320312 q -0.01563,-0.164063 -0.04687,-0.304688 -0.03125,-0.140625 -0.117187,-0.226562 0.04687,-0.07031 0.04687,-0.164063 0,-0.15625 -0.04687,-0.296875 -0.04687,-0.140625 -0.04687,-0.296875 0,-0.109375 0.04687,-0.21875 0.171875,0.0078 0.335937,0.03906 0.171875,0.02344 0.335938,0.02344 0.04687,0.0625 0.109375,0.101563 0.0625,0.03906 0.132812,0.07813 0.07031,0.03125 0.132813,0.07031 0.07031,0.03906 0.109375,0.109375 z"
       id="text6"
       style="font-size:8px;font-family:'Rock Salt';-inkscape-font-specification:'Rock Salt, @opsz=32';font-variation-settings:'opsz' 32;white-space:pre;fill:#fff8d5"
       inkscape:label="In"
       transform="matrix(1.0427699,0,0,0.70009116,4.743796,15.817348)"
       aria-label="In" />
  </g>
</svg>
